<?xml version="1.0" encoding="utf-8" standalone="no"?>
<!DOCTYPE svg PUBLIC "-//W3C//DTD SVG 1.1//EN"
  "http://www.w3.org/Graphics/SVG/1.1/DTD/svg11.dtd">
<svg xmlns:xlink="http://www.w3.org/1999/xlink" width="262.44606pt" height="240.356761pt" viewBox="0 0 262.44606 240.356761" xmlns="http://www.w3.org/2000/svg" version="1.1">
 <metadata>
  <rdf:RDF xmlns:dc="http://purl.org/dc/elements/1.1/" xmlns:cc="http://creativecommons.org/ns#" xmlns:rdf="http://www.w3.org/1999/02/22-rdf-syntax-ns#">
   <cc:Work>
    <dc:type rdf:resource="http://purl.org/dc/dcmitype/StillImage"/>
    <dc:date>2024-12-17T13:33:52.715582</dc:date>
    <dc:format>image/svg+xml</dc:format>
    <dc:creator>
     <cc:Agent>
      <dc:title>Matplotlib v3.5.2, https://matplotlib.org/</dc:title>
     </cc:Agent>
    </dc:creator>
   </cc:Work>
  </rdf:RDF>
 </metadata>
 <defs>
  <style type="text/css">*{stroke-linejoin: round; stroke-linecap: butt}</style>
 </defs>
 <g id="figure_1">
  <g id="patch_1">
   <path d="M 0 240.356761 
L 262.44606 240.356761 
L 262.44606 0 
L 0 0 
z
" style="fill: #ffffff"/>
  </g>
  <g id="axes_1">
   <g id="patch_2">
    <path d="M 63.54606 197.64 
L 258.84606 197.64 
L 258.84606 3.6 
L 63.54606 3.6 
z
" style="fill: #ffffff"/>
   </g>
   <g id="matplotlib.axis_1">
    <g id="xtick_1">
     <g id="line2d_1">
      <path d="M 110.248234 197.64 
L 110.248234 3.6 
" clip-path="url(#pc99afc2314)" style="fill: none"/>
     </g>
     <g id="line2d_2">
      <defs>
       <path id="m242edaa9d3" d="M 0 0 
L 0 3.5 
" style="stroke: #000000; stroke-width: 0.8"/>
      </defs>
      <g>
       <use xlink:href="#m242edaa9d3" x="110.248234" y="197.64" style="stroke: #000000; stroke-width: 0.8"/>
      </g>
     </g>
     <g id="text_1">
      <!-- $\mathdefault{200}$ -->
      <g transform="translate(98.542254 215.709588)scale(0.16 -0.16)">
       <defs>
        <path id="CMR17-32" d="M 2669 990 
L 2554 990 
C 2490 537 2438 460 2413 422 
C 2381 371 1920 371 1830 371 
L 602 371 
C 832 620 1280 1073 1824 1596 
C 2214 1966 2669 2400 2669 3033 
C 2669 3788 2067 4224 1395 4224 
C 691 4224 262 3603 262 3027 
C 262 2777 448 2745 525 2745 
C 589 2745 781 2783 781 3007 
C 781 3206 614 3264 525 3264 
C 486 3264 448 3257 422 3244 
C 544 3788 915 4057 1306 4057 
C 1862 4057 2227 3616 2227 3033 
C 2227 2477 1901 1998 1536 1583 
L 262 147 
L 262 0 
L 2515 0 
L 2669 990 
z
" transform="scale(0.015625)"/>
        <path id="CMR17-30" d="M 2688 2038 
C 2688 2430 2682 3099 2413 3613 
C 2176 4063 1798 4224 1466 4224 
C 1158 4224 768 4082 525 3620 
C 269 3137 243 2539 243 2038 
C 243 1671 250 1112 448 623 
C 723 -39 1216 -128 1466 -128 
C 1760 -128 2208 -7 2470 604 
C 2662 1048 2688 1568 2688 2038 
z
M 1466 -26 
C 1056 -26 813 328 723 816 
C 653 1196 653 1749 653 2109 
C 653 2604 653 3015 736 3407 
C 858 3954 1216 4121 1466 4121 
C 1728 4121 2067 3947 2189 3420 
C 2272 3054 2278 2623 2278 2109 
C 2278 1691 2278 1176 2202 797 
C 2067 96 1690 -26 1466 -26 
z
" transform="scale(0.015625)"/>
       </defs>
       <use xlink:href="#CMR17-32" transform="scale(0.996264)"/>
       <use xlink:href="#CMR17-30" transform="translate(45.690477 0)scale(0.996264)"/>
       <use xlink:href="#CMR17-30" transform="translate(91.380954 0)scale(0.996264)"/>
      </g>
     </g>
    </g>
    <g id="xtick_2">
     <g id="line2d_3">
      <path d="M 195.161278 197.64 
L 195.161278 3.6 
" clip-path="url(#pc99afc2314)" style="fill: none"/>
     </g>
     <g id="line2d_4">
      <g>
       <use xlink:href="#m242edaa9d3" x="195.161278" y="197.64" style="stroke: #000000; stroke-width: 0.8"/>
      </g>
     </g>
     <g id="text_2">
      <!-- $\mathdefault{400}$ -->
      <g transform="translate(183.455297 215.709588)scale(0.16 -0.16)">
       <defs>
        <path id="CMR17-34" d="M 2150 4147 
C 2150 4281 2144 4288 2029 4288 
L 128 1254 
L 128 1088 
L 1779 1088 
L 1779 460 
C 1779 230 1766 166 1318 166 
L 1197 166 
L 1197 0 
C 1402 12 1747 12 1965 12 
C 2182 12 2528 12 2733 0 
L 2733 166 
L 2611 166 
C 2163 166 2150 230 2150 460 
L 2150 1088 
L 2803 1088 
L 2803 1254 
L 2150 1254 
L 2150 4147 
z
M 1798 3723 
L 1798 1254 
L 256 1254 
L 1798 3723 
z
" transform="scale(0.015625)"/>
       </defs>
       <use xlink:href="#CMR17-34" transform="scale(0.996264)"/>
       <use xlink:href="#CMR17-30" transform="translate(45.690477 0)scale(0.996264)"/>
       <use xlink:href="#CMR17-30" transform="translate(91.380954 0)scale(0.996264)"/>
      </g>
     </g>
    </g>
    <g id="text_3">
     <!-- $N_{\rm train} / 1000 $ -->
     <g transform="translate(127.804471 233.269837)scale(0.14 -0.14)">
      <defs>
       <path id="CMMI12-4e" d="M 4736 3682 
C 4806 3956 4909 4147 5395 4166 
C 5414 4166 5491 4172 5491 4281 
C 5491 4352 5434 4352 5408 4352 
C 5280 4352 4954 4339 4826 4339 
L 4518 4339 
C 4429 4339 4314 4352 4224 4352 
C 4186 4352 4109 4352 4109 4230 
C 4109 4166 4160 4166 4205 4166 
C 4589 4153 4614 4007 4614 3892 
C 4614 3835 4608 3816 4589 3726 
L 3866 854 
L 2496 4243 
C 2451 4345 2445 4352 2304 4352 
L 1523 4352 
C 1395 4352 1338 4352 1338 4230 
C 1338 4166 1382 4166 1504 4166 
C 1536 4166 1914 4166 1914 4109 
C 1914 4096 1901 4045 1894 4026 
L 1043 650 
C 966 338 813 204 390 185 
C 358 185 294 179 294 64 
C 294 0 358 0 378 0 
C 506 0 832 12 960 12 
L 1267 12 
C 1357 12 1466 0 1555 0 
C 1600 0 1670 0 1670 121 
C 1670 179 1606 185 1581 185 
C 1370 191 1165 230 1165 459 
C 1165 510 1178 567 1190 618 
L 2054 4026 
C 2093 3962 2093 3949 2118 3892 
L 3642 115 
C 3674 38 3686 0 3744 0 
C 3808 0 3814 19 3840 128 
L 4736 3682 
z
" transform="scale(0.015625)"/>
       <path id="CMR17-74" d="M 966 2585 
L 1862 2585 
L 1862 2752 
L 966 2752 
L 966 3968 
L 851 3968 
C 838 3292 614 2700 70 2687 
L 70 2585 
L 627 2585 
L 627 778 
C 627 655 627 -64 1370 -64 
C 1747 -64 1965 308 1965 784 
L 1965 1151 
L 1850 1151 
L 1850 790 
C 1850 347 1677 51 1408 51 
C 1222 51 966 179 966 765 
L 966 2585 
z
" transform="scale(0.015625)"/>
       <path id="CMR17-72" d="M 960 1517 
C 960 2134 1222 2713 1702 2713 
C 1747 2713 1792 2707 1837 2687 
C 1837 2687 1696 2642 1696 2475 
C 1696 2321 1818 2257 1914 2257 
C 1990 2257 2131 2302 2131 2482 
C 2131 2687 1926 2816 1709 2816 
C 1222 2816 1011 2340 947 2115 
L 941 2115 
L 941 2816 
L 198 2745 
L 198 2578 
C 576 2578 634 2540 634 2231 
L 634 443 
C 634 198 608 166 198 166 
L 198 0 
C 352 12 646 12 813 12 
C 998 12 1325 12 1498 0 
L 1498 166 
C 1037 166 960 166 960 455 
L 960 1517 
z
" transform="scale(0.015625)"/>
       <path id="CMR17-61" d="M 2304 1656 
C 2304 2048 2304 2275 2035 2534 
C 1798 2751 1523 2816 1306 2816 
C 800 2816 435 2408 435 1977 
C 435 1740 627 1728 666 1728 
C 749 1728 896 1779 896 1958 
C 896 2118 774 2188 666 2188 
C 640 2188 608 2182 589 2176 
C 723 2594 1069 2713 1293 2713 
C 1613 2713 1965 2421 1965 1875 
L 1965 1632 
C 1587 1619 1133 1568 774 1373 
C 371 1147 256 822 256 576 
C 256 77 832 -64 1171 -64 
C 1523 -64 1850 135 1990 505 
C 2003 219 2182 -39 2464 -39 
C 2598 -39 2938 51 2938 563 
L 2938 926 
L 2822 926 
L 2822 557 
C 2822 161 2650 109 2566 109 
C 2304 109 2304 446 2304 732 
L 2304 1656 
z
M 1965 887 
C 1965 323 1568 38 1216 38 
C 896 38 646 278 646 576 
C 646 771 730 1114 1101 1322 
C 1408 1497 1760 1523 1965 1536 
L 1965 887 
z
" transform="scale(0.015625)"/>
       <path id="CMR17-69" d="M 992 3961 
C 992 4102 877 4224 730 4224 
C 589 4224 467 4108 467 3961 
C 467 3820 582 3699 730 3699 
C 870 3699 992 3814 992 3961 
z
M 243 2745 
L 243 2579 
C 602 2579 653 2540 653 2231 
L 653 443 
C 653 198 627 166 218 166 
L 218 0 
C 371 12 646 12 806 12 
C 960 12 1222 12 1370 0 
L 1370 166 
C 992 166 979 205 979 436 
L 979 2816 
L 243 2745 
z
" transform="scale(0.015625)"/>
       <path id="CMR17-6e" d="M 2656 1954 
C 2656 2282 2592 2816 1837 2816 
C 1331 2816 1069 2424 973 2166 
L 966 2166 
L 966 2816 
L 211 2745 
L 211 2578 
C 589 2578 646 2540 646 2231 
L 646 443 
C 646 198 621 166 211 166 
L 211 0 
C 365 12 646 12 813 12 
C 979 12 1267 12 1421 0 
L 1421 166 
C 1011 166 986 192 986 443 
L 986 1678 
C 986 2269 1344 2713 1792 2713 
C 2266 2713 2317 2289 2317 1980 
L 2317 443 
C 2317 198 2291 166 1882 166 
L 1882 0 
C 2035 12 2317 12 2483 12 
C 2650 12 2938 12 3091 0 
L 3091 166 
C 2682 166 2656 192 2656 443 
L 2656 1954 
z
" transform="scale(0.015625)"/>
       <path id="CMMI12-3d" d="M 2746 4563 
C 2746 4569 2784 4665 2784 4678 
C 2784 4755 2720 4800 2669 4800 
C 2637 4800 2579 4800 2528 4659 
L 384 -1364 
C 384 -1370 346 -1466 346 -1479 
C 346 -1556 410 -1600 461 -1600 
C 499 -1600 557 -1594 602 -1460 
L 2746 4563 
z
" transform="scale(0.015625)"/>
       <path id="CMR17-31" d="M 1702 4083 
C 1702 4217 1696 4224 1606 4224 
C 1357 3927 979 3833 621 3820 
C 602 3820 570 3820 563 3808 
C 557 3795 557 3782 557 3648 
C 755 3648 1088 3686 1344 3839 
L 1344 467 
C 1344 243 1331 166 781 166 
L 589 166 
L 589 0 
C 896 6 1216 12 1523 12 
C 1830 12 2150 6 2458 0 
L 2458 166 
L 2266 166 
C 1715 166 1702 236 1702 467 
L 1702 4083 
z
" transform="scale(0.015625)"/>
      </defs>
      <use xlink:href="#CMMI12-4e" transform="scale(0.996264)"/>
      <use xlink:href="#CMR17-74" transform="translate(78.115119 -14.943915)scale(0.697382)"/>
      <use xlink:href="#CMR17-72" transform="translate(102.811539 -14.943915)scale(0.697382)"/>
      <use xlink:href="#CMR17-61" transform="translate(127.50796 -14.943915)scale(0.697382)"/>
      <use xlink:href="#CMR17-69" transform="translate(159.491142 -14.943915)scale(0.697382)"/>
      <use xlink:href="#CMR17-6e" transform="translate(176.9008 -14.943915)scale(0.697382)"/>
      <use xlink:href="#CMMI12-3d" transform="translate(213.025541 0)scale(0.996264)"/>
      <use xlink:href="#CMR17-31" transform="translate(261.80046 0)scale(0.996264)"/>
      <use xlink:href="#CMR17-30" transform="translate(307.490937 0)scale(0.996264)"/>
      <use xlink:href="#CMR17-30" transform="translate(353.181414 0)scale(0.996264)"/>
      <use xlink:href="#CMR17-30" transform="translate(398.871891 0)scale(0.996264)"/>
     </g>
    </g>
   </g>
   <g id="matplotlib.axis_2">
    <g id="ytick_1">
     <g id="line2d_5">
      <path d="M 63.54606 191.312745 
L 258.84606 191.312745 
" clip-path="url(#pc99afc2314)" style="fill: none"/>
     </g>
     <g id="line2d_6">
      <defs>
       <path id="m33b40f50a7" d="M 0 0 
L -3.5 0 
" style="stroke: #000000; stroke-width: 0.8"/>
      </defs>
      <g>
       <use xlink:href="#m33b40f50a7" x="63.54606" y="191.312745" style="stroke: #000000; stroke-width: 0.8"/>
      </g>
     </g>
     <g id="text_4">
      <!-- $\mathdefault{10^{-2}}$ -->
      <g transform="translate(26.680472 196.84754)scale(0.16 -0.16)">
       <defs>
        <path id="CMSY10-0" d="M 4218 1472 
C 4326 1472 4442 1472 4442 1600 
C 4442 1728 4326 1728 4218 1728 
L 755 1728 
C 646 1728 531 1728 531 1600 
C 531 1472 646 1472 755 1472 
L 4218 1472 
z
" transform="scale(0.015625)"/>
       </defs>
       <use xlink:href="#CMR17-31" transform="scale(0.996264)"/>
       <use xlink:href="#CMR17-30" transform="translate(45.690477 0)scale(0.996264)"/>
       <use xlink:href="#CMSY10-0" transform="translate(91.380954 36.153639)scale(0.697382)"/>
       <use xlink:href="#CMR17-32" transform="translate(145.621947 36.153639)scale(0.697382)"/>
      </g>
     </g>
    </g>
    <g id="ytick_2">
     <g id="line2d_7">
      <path d="M 63.54606 126.022747 
L 258.84606 126.022747 
" clip-path="url(#pc99afc2314)" style="fill: none"/>
     </g>
     <g id="line2d_8">
      <g>
       <use xlink:href="#m33b40f50a7" x="63.54606" y="126.022747" style="stroke: #000000; stroke-width: 0.8"/>
      </g>
     </g>
     <g id="text_5">
      <!-- $\mathdefault{10^{-1}}$ -->
      <g transform="translate(26.680472 131.557541)scale(0.16 -0.16)">
       <use xlink:href="#CMR17-31" transform="scale(0.996264)"/>
       <use xlink:href="#CMR17-30" transform="translate(45.690477 0)scale(0.996264)"/>
       <use xlink:href="#CMSY10-0" transform="translate(91.380954 36.153639)scale(0.697382)"/>
       <use xlink:href="#CMR17-31" transform="translate(145.621947 36.153639)scale(0.697382)"/>
      </g>
     </g>
    </g>
    <g id="ytick_3">
     <g id="line2d_9">
      <path d="M 63.54606 60.732749 
L 258.84606 60.732749 
" clip-path="url(#pc99afc2314)" style="fill: none"/>
     </g>
     <g id="line2d_10">
      <g>
       <use xlink:href="#m33b40f50a7" x="63.54606" y="60.732749" style="stroke: #000000; stroke-width: 0.8"/>
      </g>
     </g>
     <g id="text_6">
      <!-- $\mathdefault{10^{0}}$ -->
      <g transform="translate(35.359017 66.267543)scale(0.16 -0.16)">
       <use xlink:href="#CMR17-31" transform="scale(0.996264)"/>
       <use xlink:href="#CMR17-30" transform="translate(45.690477 0)scale(0.996264)"/>
       <use xlink:href="#CMR17-30" transform="translate(91.380954 36.153639)scale(0.697382)"/>
      </g>
     </g>
    </g>
    <g id="ytick_4">
     <g id="line2d_11">
      <defs>
       <path id="md7774f78a1" d="M 0 0 
L -2 0 
" style="stroke: #000000; stroke-width: 0.6"/>
      </defs>
      <g>
       <use xlink:href="#md7774f78a1" x="63.54606" y="197.64" style="stroke: #000000; stroke-width: 0.6"/>
      </g>
     </g>
    </g>
    <g id="ytick_5">
     <g id="line2d_12">
      <g>
       <use xlink:href="#md7774f78a1" x="63.54606" y="194.300252" style="stroke: #000000; stroke-width: 0.6"/>
      </g>
     </g>
    </g>
    <g id="ytick_6">
     <g id="line2d_13">
      <g>
       <use xlink:href="#md7774f78a1" x="63.54606" y="171.658497" style="stroke: #000000; stroke-width: 0.6"/>
      </g>
     </g>
    </g>
    <g id="ytick_7">
     <g id="line2d_14">
      <g>
       <use xlink:href="#md7774f78a1" x="63.54606" y="160.161499" style="stroke: #000000; stroke-width: 0.6"/>
      </g>
     </g>
    </g>
    <g id="ytick_8">
     <g id="line2d_15">
      <g>
       <use xlink:href="#md7774f78a1" x="63.54606" y="152.00425" style="stroke: #000000; stroke-width: 0.6"/>
      </g>
     </g>
    </g>
    <g id="ytick_9">
     <g id="line2d_16">
      <g>
       <use xlink:href="#md7774f78a1" x="63.54606" y="145.676995" style="stroke: #000000; stroke-width: 0.6"/>
      </g>
     </g>
    </g>
    <g id="ytick_10">
     <g id="line2d_17">
      <g>
       <use xlink:href="#md7774f78a1" x="63.54606" y="140.507251" style="stroke: #000000; stroke-width: 0.6"/>
      </g>
     </g>
    </g>
    <g id="ytick_11">
     <g id="line2d_18">
      <g>
       <use xlink:href="#md7774f78a1" x="63.54606" y="136.136296" style="stroke: #000000; stroke-width: 0.6"/>
      </g>
     </g>
    </g>
    <g id="ytick_12">
     <g id="line2d_19">
      <g>
       <use xlink:href="#md7774f78a1" x="63.54606" y="132.350002" style="stroke: #000000; stroke-width: 0.6"/>
      </g>
     </g>
    </g>
    <g id="ytick_13">
     <g id="line2d_20">
      <g>
       <use xlink:href="#md7774f78a1" x="63.54606" y="129.010253" style="stroke: #000000; stroke-width: 0.6"/>
      </g>
     </g>
    </g>
    <g id="ytick_14">
     <g id="line2d_21">
      <g>
       <use xlink:href="#md7774f78a1" x="63.54606" y="106.368499" style="stroke: #000000; stroke-width: 0.6"/>
      </g>
     </g>
    </g>
    <g id="ytick_15">
     <g id="line2d_22">
      <g>
       <use xlink:href="#md7774f78a1" x="63.54606" y="94.871501" style="stroke: #000000; stroke-width: 0.6"/>
      </g>
     </g>
    </g>
    <g id="ytick_16">
     <g id="line2d_23">
      <g>
       <use xlink:href="#md7774f78a1" x="63.54606" y="86.714251" style="stroke: #000000; stroke-width: 0.6"/>
      </g>
     </g>
    </g>
    <g id="ytick_17">
     <g id="line2d_24">
      <g>
       <use xlink:href="#md7774f78a1" x="63.54606" y="80.386996" style="stroke: #000000; stroke-width: 0.6"/>
      </g>
     </g>
    </g>
    <g id="ytick_18">
     <g id="line2d_25">
      <g>
       <use xlink:href="#md7774f78a1" x="63.54606" y="75.217253" style="stroke: #000000; stroke-width: 0.6"/>
      </g>
     </g>
    </g>
    <g id="ytick_19">
     <g id="line2d_26">
      <g>
       <use xlink:href="#md7774f78a1" x="63.54606" y="70.846297" style="stroke: #000000; stroke-width: 0.6"/>
      </g>
     </g>
    </g>
    <g id="ytick_20">
     <g id="line2d_27">
      <g>
       <use xlink:href="#md7774f78a1" x="63.54606" y="67.060003" style="stroke: #000000; stroke-width: 0.6"/>
      </g>
     </g>
    </g>
    <g id="ytick_21">
     <g id="line2d_28">
      <g>
       <use xlink:href="#md7774f78a1" x="63.54606" y="63.720255" style="stroke: #000000; stroke-width: 0.6"/>
      </g>
     </g>
    </g>
    <g id="ytick_22">
     <g id="line2d_29">
      <g>
       <use xlink:href="#md7774f78a1" x="63.54606" y="41.078501" style="stroke: #000000; stroke-width: 0.6"/>
      </g>
     </g>
    </g>
    <g id="ytick_23">
     <g id="line2d_30">
      <g>
       <use xlink:href="#md7774f78a1" x="63.54606" y="29.581503" style="stroke: #000000; stroke-width: 0.6"/>
      </g>
     </g>
    </g>
    <g id="ytick_24">
     <g id="line2d_31">
      <g>
       <use xlink:href="#md7774f78a1" x="63.54606" y="21.424253" style="stroke: #000000; stroke-width: 0.6"/>
      </g>
     </g>
    </g>
    <g id="ytick_25">
     <g id="line2d_32">
      <g>
       <use xlink:href="#md7774f78a1" x="63.54606" y="15.096998" style="stroke: #000000; stroke-width: 0.6"/>
      </g>
     </g>
    </g>
    <g id="ytick_26">
     <g id="line2d_33">
      <g>
       <use xlink:href="#md7774f78a1" x="63.54606" y="9.927255" style="stroke: #000000; stroke-width: 0.6"/>
      </g>
     </g>
    </g>
    <g id="ytick_27">
     <g id="line2d_34">
      <g>
       <use xlink:href="#md7774f78a1" x="63.54606" y="5.556299" style="stroke: #000000; stroke-width: 0.6"/>
      </g>
     </g>
    </g>
    <g id="text_7">
     <!-- $\langle\Delta\chi^2\rangle_{\rm med}$ -->
     <g transform="translate(18.197284 134.605614)rotate(-90)scale(0.18 -0.18)">
      <defs>
       <path id="CMSY10-68" d="M 2099 4557 
C 2131 4627 2131 4640 2131 4672 
C 2131 4742 2074 4800 2003 4800 
C 1946 4800 1901 4768 1856 4653 
L 736 1715 
C 723 1677 704 1638 704 1600 
C 704 1580 704 1568 736 1491 
L 1856 -1447 
C 1882 -1517 1914 -1600 2003 -1600 
C 2074 -1600 2131 -1543 2131 -1472 
C 2131 -1453 2131 -1440 2099 -1370 
L 966 1600 
L 2099 4557 
z
" transform="scale(0.015625)"/>
       <path id="CMR17-1" d="M 2598 4435 
C 2547 4544 2522 4544 2470 4544 
C 2394 4544 2387 4531 2342 4441 
L 269 108 
C 262 96 237 38 237 32 
C 237 6 243 0 358 0 
L 4576 0 
C 4691 0 4698 6 4698 32 
C 4698 38 4672 96 4666 108 
L 2598 4435 
z
M 2310 4056 
L 4083 358 
L 531 358 
L 2310 4056 
z
" transform="scale(0.015625)"/>
       <path id="CMMI12-1f" d="M 2112 1035 
C 1939 1562 1978 1511 1818 1956 
C 1619 2503 1568 2547 1478 2636 
C 1363 2739 1146 2816 922 2816 
C 563 2816 390 2484 390 2401 
C 390 2363 422 2344 461 2344 
C 512 2344 525 2376 531 2401 
C 627 2649 826 2687 883 2687 
C 1069 2687 1248 2230 1363 1925 
C 1517 1537 1594 1270 1766 653 
L 256 -1050 
C 198 -1120 198 -1146 198 -1152 
C 198 -1204 230 -1216 256 -1216 
C 282 -1216 301 -1204 320 -1184 
C 499 -1006 896 -535 1062 -345 
L 1805 494 
C 2118 -479 2118 -491 2214 -727 
C 2317 -968 2451 -1280 2995 -1280 
C 3360 -1280 3526 -955 3526 -866 
C 3526 -822 3488 -809 3456 -809 
C 3405 -809 3398 -835 3379 -886 
C 3309 -1064 3142 -1152 3040 -1152 
C 2957 -1152 2854 -1152 2573 -447 
C 2406 -21 2259 487 2150 882 
L 3667 2598 
C 3718 2655 3725 2662 3725 2687 
C 3725 2732 3693 2752 3661 2752 
C 3642 2752 3622 2752 3558 2681 
L 2112 1035 
z
" transform="scale(0.015625)"/>
       <path id="CMSY10-69" d="M 1747 1491 
C 1779 1568 1779 1580 1779 1600 
C 1779 1619 1779 1632 1747 1709 
L 627 4653 
C 589 4761 550 4800 480 4800 
C 410 4800 352 4742 352 4672 
C 352 4653 352 4640 384 4569 
L 1517 1600 
L 384 -1357 
C 352 -1428 352 -1440 352 -1472 
C 352 -1543 410 -1600 480 -1600 
C 563 -1600 589 -1536 614 -1472 
L 1747 1491 
z
" transform="scale(0.015625)"/>
       <path id="CMR17-6d" d="M 4326 1954 
C 4326 2276 4269 2816 3507 2816 
C 3072 2816 2771 2520 2656 2173 
L 2650 2173 
C 2573 2700 2195 2816 1837 2816 
C 1331 2816 1069 2424 973 2166 
L 966 2166 
L 966 2816 
L 211 2745 
L 211 2578 
C 589 2578 646 2540 646 2231 
L 646 443 
C 646 198 621 166 211 166 
L 211 0 
C 365 12 646 12 813 12 
C 979 12 1267 12 1421 0 
L 1421 166 
C 1011 166 986 192 986 443 
L 986 1678 
C 986 2269 1344 2713 1792 2713 
C 2266 2713 2317 2289 2317 1980 
L 2317 443 
C 2317 198 2291 166 1882 166 
L 1882 0 
C 2035 12 2317 12 2483 12 
C 2650 12 2938 12 3091 0 
L 3091 166 
C 2682 166 2656 192 2656 443 
L 2656 1678 
C 2656 2269 3014 2713 3462 2713 
C 3936 2713 3987 2289 3987 1980 
L 3987 443 
C 3987 198 3962 166 3552 166 
L 3552 0 
C 3706 12 3987 12 4154 12 
C 4320 12 4608 12 4762 0 
L 4762 166 
C 4352 166 4326 192 4326 443 
L 4326 1954 
z
" transform="scale(0.015625)"/>
       <path id="CMR17-65" d="M 2438 1503 
C 2464 1529 2464 1542 2464 1606 
C 2464 2251 2118 2816 1389 2816 
C 710 2816 173 2175 173 1394 
C 173 554 781 -64 1459 -64 
C 2176 -64 2458 619 2458 755 
C 2458 800 2419 800 2406 800 
C 2362 800 2355 787 2330 709 
C 2189 270 1837 51 1504 51 
C 1229 51 954 206 781 490 
C 582 819 582 1200 582 1503 
L 2438 1503 
z
M 589 1600 
C 634 2511 1126 2713 1382 2713 
C 1818 2713 2112 2308 2118 1600 
L 589 1600 
z
" transform="scale(0.015625)"/>
       <path id="CMR17-64" d="M 1869 4345 
L 1869 4179 
C 2246 4179 2304 4141 2304 3843 
L 2304 2371 
C 2278 2403 2016 2816 1498 2816 
C 845 2816 211 2228 211 1376 
C 211 529 806 -64 1434 -64 
C 1978 -64 2259 361 2291 406 
L 2291 -64 
L 3066 -13 
L 3066 154 
C 2688 154 2630 193 2630 503 
L 2630 4416 
L 1869 4345 
z
M 2291 762 
C 2291 568 2176 393 2029 264 
C 1811 70 1594 38 1472 38 
C 1286 38 621 135 621 1369 
C 621 2636 1363 2713 1530 2713 
C 1824 2713 2061 2545 2208 2313 
C 2291 2177 2291 2157 2291 2041 
L 2291 762 
z
" transform="scale(0.015625)"/>
      </defs>
      <use xlink:href="#CMSY10-68" transform="scale(0.996264)"/>
      <use xlink:href="#CMR17-1" transform="translate(38.743734 0)scale(0.996264)"/>
      <use xlink:href="#CMMI12-1f" transform="translate(115.663324 0)scale(0.996264)"/>
      <use xlink:href="#CMR17-32" transform="translate(176.776283 36.153639)scale(0.697382)"/>
      <use xlink:href="#CMSY10-69" transform="translate(209.257597 0)scale(0.996264)"/>
      <use xlink:href="#CMR17-6d" transform="translate(248.00133 -14.943915)scale(0.697382)"/>
      <use xlink:href="#CMR17-65" transform="translate(301.844797 -14.943915)scale(0.697382)"/>
      <use xlink:href="#CMR17-64" transform="translate(330.184629 -14.943915)scale(0.697382)"/>
     </g>
    </g>
   </g>
   <g id="line2d_35">
    <path d="M 67.791713 63.783336 
L 110.248234 152.722138 
L 152.704756 154.214856 
L 195.161278 154.991756 
L 250.354756 174.646004 
" clip-path="url(#pc99afc2314)" style="fill: none; stroke-dasharray: 3.5,3.5; stroke-dashoffset: 0; stroke: #0000ff; stroke-width: 3.5"/>
    <defs>
     <path id="m2edb471b9c" d="M 0 5.5 
C 1.458617 5.5 2.857689 4.920485 3.889087 3.889087 
C 4.920485 2.857689 5.5 1.458617 5.5 0 
C 5.5 -1.458617 4.920485 -2.857689 3.889087 -3.889087 
C 2.857689 -4.920485 1.458617 -5.5 0 -5.5 
C -1.458617 -5.5 -2.857689 -4.920485 -3.889087 -3.889087 
C -4.920485 -2.857689 -5.5 -1.458617 -5.5 0 
C -5.5 1.458617 -4.920485 2.857689 -3.889087 3.889087 
C -2.857689 4.920485 -1.458617 5.5 0 5.5 
z
" style="stroke: #0000ff"/>
    </defs>
    <g clip-path="url(#pc99afc2314)">
     <use xlink:href="#m2edb471b9c" x="67.791713" y="63.783336" style="fill: #0000ff; stroke: #0000ff"/>
     <use xlink:href="#m2edb471b9c" x="110.248234" y="152.722138" style="fill: #0000ff; stroke: #0000ff"/>
     <use xlink:href="#m2edb471b9c" x="152.704756" y="154.214856" style="fill: #0000ff; stroke: #0000ff"/>
     <use xlink:href="#m2edb471b9c" x="195.161278" y="154.991756" style="fill: #0000ff; stroke: #0000ff"/>
     <use xlink:href="#m2edb471b9c" x="250.354756" y="174.646004" style="fill: #0000ff; stroke: #0000ff"/>
    </g>
   </g>
   <g id="line2d_36">
    <path d="M 94.596475 -1 
L 110.248234 24.904351 
L 152.704756 91.997642 
L 195.161278 92.953034 
L 250.354756 113.232459 
" clip-path="url(#pc99afc2314)" style="fill: none; stroke-dasharray: 3,3; stroke-dashoffset: 0; stroke: #b22222; stroke-width: 3"/>
    <defs>
     <path id="m3d7cd1a80b" d="M -0 4.949747 
L 4.949747 0 
L 0 -4.949747 
L -4.949747 -0 
z
" style="stroke: #b22222; stroke-linejoin: miter"/>
    </defs>
    <g clip-path="url(#pc99afc2314)">
     <use xlink:href="#m3d7cd1a80b" x="94.596475" y="-1" style="fill: #b22222; stroke: #b22222; stroke-linejoin: miter"/>
     <use xlink:href="#m3d7cd1a80b" x="110.248234" y="24.904351" style="fill: #b22222; stroke: #b22222; stroke-linejoin: miter"/>
     <use xlink:href="#m3d7cd1a80b" x="152.704756" y="91.997642" style="fill: #b22222; stroke: #b22222; stroke-linejoin: miter"/>
     <use xlink:href="#m3d7cd1a80b" x="195.161278" y="92.953034" style="fill: #b22222; stroke: #b22222; stroke-linejoin: miter"/>
     <use xlink:href="#m3d7cd1a80b" x="250.354756" y="113.232459" style="fill: #b22222; stroke: #b22222; stroke-linejoin: miter"/>
    </g>
   </g>
   <g id="line2d_37">
    <path d="M 67.791713 104.31784 
L 110.248234 153.458675 
L 152.704756 173.112923 
L 195.161278 188.610217 
L 250.354756 205.79725 
" clip-path="url(#pc99afc2314)" style="fill: none; stroke-dasharray: 2.5,2.5; stroke-dashoffset: 0; stroke: #808080; stroke-width: 2.5"/>
    <defs>
     <path id="medc9a2d2ca" d="M 0 5.5 
C 1.458617 5.5 2.857689 4.920485 3.889087 3.889087 
C 4.920485 2.857689 5.5 1.458617 5.5 0 
C 5.5 -1.458617 4.920485 -2.857689 3.889087 -3.889087 
C 2.857689 -4.920485 1.458617 -5.5 0 -5.5 
C -1.458617 -5.5 -2.857689 -4.920485 -3.889087 -3.889087 
C -4.920485 -2.857689 -5.5 -1.458617 -5.5 0 
C -5.5 1.458617 -4.920485 2.857689 -3.889087 3.889087 
C -2.857689 4.920485 -1.458617 5.5 0 5.5 
z
" style="stroke: #808080"/>
    </defs>
    <g clip-path="url(#pc99afc2314)">
     <use xlink:href="#medc9a2d2ca" x="67.791713" y="104.31784" style="fill: #808080; stroke: #808080"/>
     <use xlink:href="#medc9a2d2ca" x="110.248234" y="153.458675" style="fill: #808080; stroke: #808080"/>
     <use xlink:href="#medc9a2d2ca" x="152.704756" y="173.112923" style="fill: #808080; stroke: #808080"/>
     <use xlink:href="#medc9a2d2ca" x="195.161278" y="188.610217" style="fill: #808080; stroke: #808080"/>
     <use xlink:href="#medc9a2d2ca" x="250.354756" y="205.79725" style="fill: #808080; stroke: #808080"/>
    </g>
   </g>
   <g id="line2d_38">
    <path d="M 67.791713 41.854613 
L 110.248234 102.903008 
L 152.704756 120.853004 
L 195.161278 150.6208 
L 250.354756 155.790544 
" clip-path="url(#pc99afc2314)" style="fill: none; stroke-dasharray: 2,2; stroke-dashoffset: 0; stroke: #ffc0cb; stroke-width: 2"/>
    <defs>
     <path id="m9d2ef6b6ab" d="M -0 4.949747 
L 4.949747 0 
L 0 -4.949747 
L -4.949747 -0 
z
" style="stroke: #ffc0cb; stroke-linejoin: miter"/>
    </defs>
    <g clip-path="url(#pc99afc2314)">
     <use xlink:href="#m9d2ef6b6ab" x="67.791713" y="41.854613" style="fill: #ffc0cb; stroke: #ffc0cb; stroke-linejoin: miter"/>
     <use xlink:href="#m9d2ef6b6ab" x="110.248234" y="102.903008" style="fill: #ffc0cb; stroke: #ffc0cb; stroke-linejoin: miter"/>
     <use xlink:href="#m9d2ef6b6ab" x="152.704756" y="120.853004" style="fill: #ffc0cb; stroke: #ffc0cb; stroke-linejoin: miter"/>
     <use xlink:href="#m9d2ef6b6ab" x="195.161278" y="150.6208" style="fill: #ffc0cb; stroke: #ffc0cb; stroke-linejoin: miter"/>
     <use xlink:href="#m9d2ef6b6ab" x="250.354756" y="155.790544" style="fill: #ffc0cb; stroke: #ffc0cb; stroke-linejoin: miter"/>
    </g>
   </g>
   <g id="patch_3">
    <path d="M 63.54606 197.64 
L 63.54606 3.6 
" style="fill: none; stroke: #000000; stroke-linejoin: miter; stroke-linecap: square"/>
   </g>
   <g id="patch_4">
    <path d="M 258.84606 197.64 
L 258.84606 3.6 
" style="fill: none; stroke: #000000; stroke-linejoin: miter; stroke-linecap: square"/>
   </g>
   <g id="patch_5">
    <path d="M 63.54606 197.64 
L 258.84606 197.64 
" style="fill: none; stroke: #000000; stroke-linejoin: miter; stroke-linecap: square"/>
   </g>
   <g id="patch_6">
    <path d="M 63.54606 3.6 
L 258.84606 3.6 
" style="fill: none; stroke: #000000; stroke-linejoin: miter; stroke-linecap: square"/>
   </g>
   <g id="text_8">
    <!-- $T_{\rm test} = 128$ -->
    <g transform="translate(73.31106 185.032255)scale(0.15 -0.15)">
     <defs>
      <path id="CMMI12-54" d="M 2669 3886 
C 2707 4038 2720 4096 2816 4121 
C 2867 4134 3078 4134 3213 4134 
C 3853 4134 4154 4109 4154 3612 
C 4154 3516 4128 3274 4090 3038 
L 4083 2962 
C 4083 2937 4109 2898 4147 2898 
C 4211 2898 4211 2930 4230 3032 
L 4416 4159 
C 4429 4217 4429 4230 4429 4249 
C 4429 4319 4390 4319 4262 4319 
L 762 4319 
C 614 4319 608 4313 570 4198 
L 179 3051 
C 173 3038 154 2968 154 2962 
C 154 2930 179 2898 218 2898 
C 269 2898 282 2924 307 3007 
C 576 3777 710 4134 1562 4134 
L 1990 4134 
C 2144 4134 2208 4134 2208 4064 
C 2208 4045 2208 4032 2176 3917 
L 1318 497 
C 1254 249 1242 185 563 185 
C 403 185 358 185 358 64 
C 358 0 429 0 461 0 
C 621 0 787 12 947 12 
L 1946 12 
C 2106 12 2278 0 2438 0 
C 2509 0 2573 0 2573 121 
C 2573 185 2528 185 2362 185 
C 1786 185 1786 242 1786 338 
C 1786 344 1786 389 1811 491 
L 2669 3886 
z
" transform="scale(0.015625)"/>
      <path id="CMR17-73" d="M 1978 2688 
C 1978 2803 1971 2809 1933 2809 
C 1907 2809 1901 2803 1824 2707 
C 1805 2681 1747 2617 1728 2592 
C 1523 2809 1235 2816 1126 2816 
C 416 2816 160 2444 160 2073 
C 160 1497 813 1363 998 1324 
C 1402 1241 1542 1216 1677 1100 
C 1760 1024 1901 883 1901 652 
C 1901 384 1747 38 1158 38 
C 602 38 403 460 288 1024 
C 269 1113 269 1120 218 1120 
C 166 1120 160 1113 160 985 
L 160 64 
C 160 -52 166 -58 205 -58 
C 237 -58 243 -52 275 0 
C 314 57 410 211 448 275 
C 576 102 800 -64 1158 -64 
C 1792 -64 2131 281 2131 780 
C 2131 1107 1958 1280 1875 1356 
C 1683 1555 1459 1600 1190 1651 
C 838 1728 390 1817 390 2208 
C 390 2374 480 2726 1126 2726 
C 1811 2726 1850 2086 1862 1881 
C 1869 1849 1901 1843 1920 1843 
C 1978 1843 1978 1862 1978 1971 
L 1978 2688 
z
" transform="scale(0.015625)"/>
      <path id="CMR17-3d" d="M 4115 2048 
C 4211 2048 4307 2048 4307 2156 
C 4307 2272 4198 2272 4090 2272 
L 512 2272 
C 403 2272 294 2272 294 2156 
C 294 2048 390 2048 486 2048 
L 4115 2048 
z
M 4090 927 
C 4198 927 4307 927 4307 1043 
C 4307 1152 4211 1152 4115 1152 
L 486 1152 
C 390 1152 294 1152 294 1043 
C 294 927 403 927 512 927 
L 4090 927 
z
" transform="scale(0.015625)"/>
      <path id="CMR17-38" d="M 1741 2289 
C 2144 2494 2554 2803 2554 3298 
C 2554 3884 1990 4224 1472 4224 
C 890 4224 378 3800 378 3215 
C 378 3054 416 2777 666 2533 
C 730 2469 998 2276 1171 2154 
C 883 2006 211 1652 211 945 
C 211 282 838 -128 1459 -128 
C 2144 -128 2720 366 2720 1022 
C 2720 1607 2330 1877 2074 2051 
L 1741 2289 
z
M 902 2855 
C 851 2887 595 3086 595 3388 
C 595 3781 998 4076 1459 4076 
C 1965 4076 2336 3716 2336 3298 
C 2336 2700 1670 2359 1638 2359 
C 1632 2359 1626 2359 1574 2398 
L 902 2855 
z
M 2080 1536 
C 2176 1466 2483 1253 2483 861 
C 2483 385 2010 25 1472 25 
C 890 25 448 443 448 951 
C 448 1459 838 1884 1280 2083 
L 2080 1536 
z
" transform="scale(0.015625)"/>
     </defs>
     <use xlink:href="#CMMI12-54" transform="scale(0.996264)"/>
     <use xlink:href="#CMR17-74" transform="translate(57.175044 -14.943915)scale(0.697382)"/>
     <use xlink:href="#CMR17-65" transform="translate(81.871464 -14.943915)scale(0.697382)"/>
     <use xlink:href="#CMR17-73" transform="translate(110.211296 -14.943915)scale(0.697382)"/>
     <use xlink:href="#CMR17-74" transform="translate(135.272118 -14.943915)scale(0.697382)"/>
     <use xlink:href="#CMR17-3d" transform="translate(188.140679 0)scale(0.996264)"/>
     <use xlink:href="#CMR17-31" transform="translate(287.529476 0)scale(0.996264)"/>
     <use xlink:href="#CMR17-32" transform="translate(333.219953 0)scale(0.996264)"/>
     <use xlink:href="#CMR17-38" transform="translate(378.91043 0)scale(0.996264)"/>
    </g>
   </g>
   <g id="legend_1">
    <g id="line2d_39">
     <path d="M 202.354284 19.85 
L 215.354284 19.85 
L 228.354284 19.85 
" style="fill: none; stroke-dasharray: 3.5,3.5; stroke-dashoffset: 0; stroke: #0000ff; stroke-width: 3.5"/>
     <g>
      <use xlink:href="#m2edb471b9c" x="215.354284" y="19.85" style="fill: #0000ff; stroke: #0000ff"/>
     </g>
    </g>
    <g id="text_9">
     <!-- $\mathcal{L}_2$ -->
     <g transform="translate(233.554284 24.4)scale(0.13 -0.13)">
      <defs>
       <path id="CMSY10-4c" d="M 1152 609 
C 1498 1149 1606 1561 1690 1902 
C 1914 2790 2157 3561 2554 4005 
C 2630 4089 2682 4147 2886 4147 
C 3328 4147 3341 3703 3341 3613 
C 3341 3497 3309 3407 3309 3375 
C 3309 3330 3347 3330 3354 3330 
C 3456 3330 3629 3401 3789 3516 
C 3904 3606 3962 3671 3962 3934 
C 3962 4281 3782 4544 3424 4544 
C 3219 4544 2656 4492 2029 3857 
C 1517 3330 1216 2172 1094 1690 
C 979 1246 928 1047 736 661 
C 691 583 525 300 435 217 
C 262 57 198 -58 198 -90 
C 198 -103 211 -128 256 -128 
C 282 -128 416 -103 582 6 
C 691 70 704 83 851 236 
C 1171 230 1395 172 1798 57 
C 2125 -32 2451 -128 2778 -128 
C 3296 -128 3821 262 4026 545 
C 4154 719 4192 879 4192 899 
C 4192 944 4154 944 4147 944 
C 4045 944 3891 873 3782 796 
C 3610 686 3597 648 3558 538 
C 3526 436 3488 384 3462 346 
C 3411 268 3405 268 3309 268 
C 3002 268 2682 365 2259 481 
C 2080 532 1728 635 1408 635 
C 1325 635 1235 628 1152 609 
z
" transform="scale(0.015625)"/>
      </defs>
      <use xlink:href="#CMSY10-4c" transform="scale(0.996264)"/>
      <use xlink:href="#CMR17-32" transform="translate(68.714808 -14.943915)scale(0.697382)"/>
     </g>
    </g>
    <g id="line2d_40">
     <path d="M 202.354284 34.718312 
L 215.354284 34.718312 
L 228.354284 34.718312 
" style="fill: none; stroke-dasharray: 3,3; stroke-dashoffset: 0; stroke: #b22222; stroke-width: 3"/>
     <g>
      <use xlink:href="#m3d7cd1a80b" x="215.354284" y="34.718312" style="fill: #b22222; stroke: #b22222; stroke-linejoin: miter"/>
     </g>
    </g>
    <g id="text_10">
     <!-- $\mathcal{L}_3$ -->
     <g transform="translate(233.554284 39.268312)scale(0.13 -0.13)">
      <defs>
       <path id="CMR17-33" d="M 1414 2176 
C 1984 2176 2234 1673 2234 1094 
C 2234 322 1824 25 1453 25 
C 1114 25 563 193 390 691 
C 422 678 454 678 486 678 
C 640 678 755 780 755 947 
C 755 1132 614 1216 486 1216 
C 378 1216 211 1164 211 927 
C 211 335 787 -128 1466 -128 
C 2176 -128 2720 432 2720 1087 
C 2720 1718 2208 2176 1600 2246 
C 2086 2347 2554 2776 2554 3353 
C 2554 3856 2048 4224 1472 4224 
C 890 4224 378 3862 378 3347 
C 378 3123 544 3084 627 3084 
C 762 3084 877 3167 877 3334 
C 877 3500 762 3584 627 3584 
C 602 3584 570 3584 544 3571 
C 730 3999 1235 4076 1459 4076 
C 1683 4076 2106 3966 2106 3347 
C 2106 3167 2080 2851 1862 2574 
C 1670 2329 1453 2316 1242 2297 
C 1210 2297 1062 2284 1037 2284 
C 992 2278 966 2272 966 2227 
C 966 2182 973 2176 1101 2176 
L 1414 2176 
z
" transform="scale(0.015625)"/>
      </defs>
      <use xlink:href="#CMSY10-4c" transform="scale(0.996264)"/>
      <use xlink:href="#CMR17-33" transform="translate(68.714808 -14.943915)scale(0.697382)"/>
     </g>
    </g>
    <g id="line2d_41">
     <path d="M 202.354284 49.586624 
L 215.354284 49.586624 
L 228.354284 49.586624 
" style="fill: none; stroke-dasharray: 2.5,2.5; stroke-dashoffset: 0; stroke: #808080; stroke-width: 2.5"/>
     <g>
      <use xlink:href="#medc9a2d2ca" x="215.354284" y="49.586624" style="fill: #808080; stroke: #808080"/>
     </g>
    </g>
    <g id="text_11">
     <!-- $\mathcal{L}_4$ -->
     <g transform="translate(233.554284 54.136624)scale(0.13 -0.13)">
      <use xlink:href="#CMSY10-4c" transform="scale(0.996264)"/>
      <use xlink:href="#CMR17-34" transform="translate(68.714808 -14.943915)scale(0.697382)"/>
     </g>
    </g>
    <g id="line2d_42">
     <path d="M 202.354284 64.454936 
L 215.354284 64.454936 
L 228.354284 64.454936 
" style="fill: none; stroke-dasharray: 2,2; stroke-dashoffset: 0; stroke: #ffc0cb; stroke-width: 2"/>
     <g>
      <use xlink:href="#m9d2ef6b6ab" x="215.354284" y="64.454936" style="fill: #ffc0cb; stroke: #ffc0cb; stroke-linejoin: miter"/>
     </g>
    </g>
    <g id="text_12">
     <!-- $\mathcal{L}_5$ -->
     <g transform="translate(233.554284 69.004936)scale(0.13 -0.13)">
      <defs>
       <path id="CMR17-35" d="M 730 3750 
C 794 3724 1056 3641 1325 3641 
C 1920 3641 2246 3961 2432 4140 
C 2432 4191 2432 4224 2394 4224 
C 2387 4224 2374 4224 2323 4198 
C 2099 4102 1837 4032 1517 4032 
C 1325 4032 1037 4055 723 4191 
C 653 4224 640 4224 634 4224 
C 602 4224 595 4217 595 4090 
L 595 2231 
C 595 2113 595 2080 659 2080 
C 691 2080 704 2093 736 2139 
C 941 2435 1222 2560 1542 2560 
C 1766 2560 2246 2415 2246 1293 
C 2246 1087 2246 716 2054 422 
C 1894 159 1645 25 1370 25 
C 947 25 518 319 403 812 
C 429 806 480 793 506 793 
C 589 793 749 838 749 1036 
C 749 1209 627 1280 506 1280 
C 358 1280 262 1190 262 1011 
C 262 454 704 -128 1382 -128 
C 2042 -128 2669 441 2669 1267 
C 2669 2054 2170 2662 1549 2662 
C 1222 2662 947 2540 730 2304 
L 730 3750 
z
" transform="scale(0.015625)"/>
      </defs>
      <use xlink:href="#CMSY10-4c" transform="scale(0.996264)"/>
      <use xlink:href="#CMR17-35" transform="translate(68.714808 -14.943915)scale(0.697382)"/>
     </g>
    </g>
   </g>
  </g>
 </g>
 <defs>
  <clipPath id="pc99afc2314">
   <rect x="63.54606" y="3.6" width="195.3" height="194.04"/>
  </clipPath>
 </defs>
</svg>
