<?xml version="1.0" encoding="utf-8" standalone="no"?>
<!DOCTYPE svg PUBLIC "-//W3C//DTD SVG 1.1//EN"
  "http://www.w3.org/Graphics/SVG/1.1/DTD/svg11.dtd">
<svg xmlns:xlink="http://www.w3.org/1999/xlink" width="228.5pt" height="233.237397pt" viewBox="0 0 228.5 233.237397" xmlns="http://www.w3.org/2000/svg" version="1.1">
 <metadata>
  <rdf:RDF xmlns:dc="http://purl.org/dc/elements/1.1/" xmlns:cc="http://creativecommons.org/ns#" xmlns:rdf="http://www.w3.org/1999/02/22-rdf-syntax-ns#">
   <cc:Work>
    <dc:type rdf:resource="http://purl.org/dc/dcmitype/StillImage"/>
    <dc:date>2024-11-07T16:09:55.519658</dc:date>
    <dc:format>image/svg+xml</dc:format>
    <dc:creator>
     <cc:Agent>
      <dc:title>Matplotlib v3.7.5, https://matplotlib.org/</dc:title>
     </cc:Agent>
    </dc:creator>
   </cc:Work>
  </rdf:RDF>
 </metadata>
 <defs>
  <style type="text/css">*{stroke-linejoin: round; stroke-linecap: butt}</style>
 </defs>
 <g id="figure_1">
  <g id="patch_1">
   <path d="M 0 233.237397 
L 228.5 233.237397 
L 228.5 0 
L 0 0 
z
" style="fill: #ffffff"/>
  </g>
  <g id="axes_1">
   <g id="patch_2">
    <path d="M 29.6 200.637397 
L 224.9 200.637397 
L 224.9 6.597397 
L 29.6 6.597397 
z
" style="fill: #ffffff"/>
   </g>
   <g id="matplotlib.axis_1">
    <g id="xtick_1">
     <g id="line2d_1">
      <path d="M 78.179648 200.637397 
L 78.179648 6.597397 
" clip-path="url(#pcedacc65e1)" style="fill: none"/>
     </g>
     <g id="line2d_2">
      <defs>
       <path id="m90203e362e" d="M 0 0 
L 0 3.5 
" style="stroke: #000000; stroke-width: 0.8"/>
      </defs>
      <g>
       <use xlink:href="#m90203e362e" x="78.179648" y="200.637397" style="stroke: #000000; stroke-width: 0.8"/>
      </g>
     </g>
     <g id="text_1">
      <!-- 200 -->
      <g transform="translate(70.679648 214.467085) scale(0.1 -0.1)">
       <defs>
        <path id="STIXGeneral-Regular-32" d="M 3034 877 
L 2688 0 
L 186 0 
L 186 77 
L 1325 1286 
Q 1773 1754 1965 2144 
Q 2157 2534 2157 2950 
Q 2157 3379 1920 3616 
Q 1683 3853 1267 3853 
Q 922 3853 720 3673 
Q 518 3494 326 3021 
L 192 3053 
Q 301 3648 630 3987 
Q 960 4326 1523 4326 
Q 2054 4326 2380 4006 
Q 2707 3686 2707 3200 
Q 2707 2477 1888 1613 
L 832 486 
L 2330 486 
Q 2541 486 2665 569 
Q 2790 653 2944 915 
L 3034 877 
z
" transform="scale(0.015625)"/>
        <path id="STIXGeneral-Regular-30" d="M 3046 2112 
Q 3046 1683 2963 1302 
Q 2880 922 2717 602 
Q 2554 282 2266 96 
Q 1978 -90 1600 -90 
Q 1210 -90 915 108 
Q 621 307 461 640 
Q 301 973 227 1350 
Q 154 1728 154 2150 
Q 154 2746 301 3222 
Q 448 3699 790 4012 
Q 1133 4326 1626 4326 
Q 2253 4326 2649 3712 
Q 3046 3098 3046 2112 
z
M 2432 2080 
Q 2432 3091 2217 3625 
Q 2003 4160 1587 4160 
Q 1190 4160 979 3622 
Q 768 3085 768 2106 
Q 768 1120 979 598 
Q 1190 77 1600 77 
Q 2003 77 2217 598 
Q 2432 1120 2432 2080 
z
" transform="scale(0.015625)"/>
       </defs>
       <use xlink:href="#STIXGeneral-Regular-32"/>
       <use xlink:href="#STIXGeneral-Regular-30" x="49.999985"/>
       <use xlink:href="#STIXGeneral-Regular-30" x="99.999969"/>
      </g>
     </g>
    </g>
    <g id="xtick_2">
     <g id="line2d_3">
      <path d="M 127.25 200.637397 
L 127.25 6.597397 
" clip-path="url(#pcedacc65e1)" style="fill: none"/>
     </g>
     <g id="line2d_4">
      <g>
       <use xlink:href="#m90203e362e" x="127.25" y="200.637397" style="stroke: #000000; stroke-width: 0.8"/>
      </g>
     </g>
     <g id="text_2">
      <!-- 300 -->
      <g transform="translate(119.75 214.467085) scale(0.1 -0.1)">
       <defs>
        <path id="STIXGeneral-Regular-33" d="M 390 3264 
L 288 3290 
Q 435 3770 748 4048 
Q 1062 4326 1542 4326 
Q 1990 4326 2265 4083 
Q 2541 3840 2541 3450 
Q 2541 2925 1946 2566 
Q 2298 2413 2477 2227 
Q 2758 1914 2758 1402 
Q 2758 890 2464 506 
Q 2246 211 1840 60 
Q 1434 -90 979 -90 
Q 262 -90 262 275 
Q 262 378 339 442 
Q 416 506 525 506 
Q 685 506 915 339 
Q 1197 141 1466 141 
Q 1818 141 2058 425 
Q 2298 710 2298 1120 
Q 2298 1856 1632 2048 
Q 1434 2112 979 2112 
L 979 2202 
Q 1338 2323 1517 2432 
Q 2035 2726 2035 3290 
Q 2035 3610 1852 3776 
Q 1670 3942 1344 3942 
Q 768 3942 390 3264 
z
" transform="scale(0.015625)"/>
       </defs>
       <use xlink:href="#STIXGeneral-Regular-33"/>
       <use xlink:href="#STIXGeneral-Regular-30" x="49.999985"/>
       <use xlink:href="#STIXGeneral-Regular-30" x="99.999969"/>
      </g>
     </g>
    </g>
    <g id="xtick_3">
     <g id="line2d_5">
      <path d="M 176.320352 200.637397 
L 176.320352 6.597397 
" clip-path="url(#pcedacc65e1)" style="fill: none"/>
     </g>
     <g id="line2d_6">
      <g>
       <use xlink:href="#m90203e362e" x="176.320352" y="200.637397" style="stroke: #000000; stroke-width: 0.8"/>
      </g>
     </g>
     <g id="text_3">
      <!-- 400 -->
      <g transform="translate(168.820352 214.467085) scale(0.1 -0.1)">
       <defs>
        <path id="STIXGeneral-Regular-34" d="M 3027 1069 
L 2368 1069 
L 2368 0 
L 1869 0 
L 1869 1069 
L 77 1069 
L 77 1478 
L 2086 4326 
L 2368 4326 
L 2368 1478 
L 3027 1478 
L 3027 1069 
z
M 1869 1478 
L 1869 3674 
L 333 1478 
L 1869 1478 
z
" transform="scale(0.015625)"/>
       </defs>
       <use xlink:href="#STIXGeneral-Regular-34"/>
       <use xlink:href="#STIXGeneral-Regular-30" x="49.999985"/>
       <use xlink:href="#STIXGeneral-Regular-30" x="99.999969"/>
      </g>
     </g>
    </g>
    <g id="text_4">
     <!-- $N_{\rm train} / 1000 $ -->
     <g transform="translate(105.85 227.467085) scale(0.1 -0.1)">
      <defs>
       <path id="STIXGeneral-Italic-4e" d="M 4653 4179 
L 4653 4077 
Q 4480 4038 4413 4016 
Q 4346 3994 4266 3882 
Q 4186 3770 4144 3635 
Q 4102 3501 4000 3149 
L 3066 -96 
L 2950 -96 
L 1478 3424 
L 749 723 
Q 691 525 691 378 
Q 691 243 790 182 
Q 890 122 1139 102 
L 1139 0 
L -128 0 
L -128 102 
Q 147 141 262 304 
Q 378 467 550 1075 
L 1299 3731 
Q 1152 4077 749 4077 
L 749 4179 
L 1773 4179 
L 3098 986 
L 3776 3469 
Q 3827 3648 3827 3750 
Q 3827 3923 3740 3987 
Q 3654 4051 3386 4077 
L 3386 4179 
L 4653 4179 
z
" transform="scale(0.015625)"/>
       <path id="STIXGeneral-Regular-74" d="M 1702 493 
L 1786 422 
Q 1478 -64 1011 -64 
Q 448 -64 448 749 
L 448 2675 
L 109 2675 
Q 83 2694 83 2720 
Q 83 2771 192 2842 
Q 435 2982 813 3526 
Q 826 3546 874 3606 
Q 922 3667 941 3706 
Q 986 3706 986 3622 
L 986 2880 
L 1632 2880 
L 1632 2675 
L 986 2675 
L 986 845 
Q 986 538 1062 403 
Q 1139 269 1318 269 
Q 1510 269 1702 493 
z
" transform="scale(0.015625)"/>
       <path id="STIXGeneral-Regular-72" d="M 1024 2931 
L 1024 2342 
Q 1267 2688 1430 2816 
Q 1594 2944 1792 2944 
Q 1958 2944 2051 2854 
Q 2144 2765 2144 2605 
Q 2144 2470 2077 2393 
Q 2010 2317 1894 2317 
Q 1773 2317 1638 2445 
Q 1536 2541 1472 2541 
Q 1338 2541 1181 2355 
Q 1024 2170 1024 2016 
L 1024 576 
Q 1024 301 1133 205 
Q 1242 109 1568 96 
L 1568 0 
L 32 0 
L 32 96 
Q 339 154 412 224 
Q 486 294 486 538 
L 486 2138 
Q 486 2349 438 2435 
Q 390 2522 269 2522 
Q 166 2522 45 2496 
L 45 2598 
Q 448 2726 992 2944 
L 1024 2931 
z
" transform="scale(0.015625)"/>
       <path id="STIXGeneral-Regular-61" d="M 2829 422 
L 2829 243 
Q 2586 -64 2253 -64 
Q 1888 -64 1843 403 
L 1837 403 
Q 1427 -64 909 -64 
Q 608 -64 422 112 
Q 237 288 237 602 
Q 237 1050 685 1350 
Q 992 1555 1837 1869 
L 1837 2214 
Q 1837 2502 1699 2646 
Q 1562 2790 1338 2790 
Q 1146 2790 1018 2697 
Q 890 2605 890 2477 
Q 890 2419 909 2348 
Q 928 2278 928 2208 
Q 928 2112 841 2029 
Q 755 1946 634 1946 
Q 525 1946 441 2029 
Q 358 2112 358 2240 
Q 358 2547 685 2752 
Q 986 2944 1421 2944 
Q 1939 2944 2176 2656 
Q 2291 2522 2323 2384 
Q 2355 2246 2355 1946 
L 2355 723 
Q 2355 301 2554 301 
Q 2682 301 2829 422 
z
M 1837 813 
L 1837 1715 
Q 1248 1510 1018 1293 
Q 800 1094 800 800 
Q 800 557 921 432 
Q 1043 307 1242 307 
Q 1453 307 1613 410 
Q 1747 506 1792 589 
Q 1837 672 1837 813 
z
" transform="scale(0.015625)"/>
       <path id="STIXGeneral-Regular-69" d="M 1152 4045 
Q 1152 3904 1056 3811 
Q 960 3718 819 3718 
Q 685 3718 592 3811 
Q 499 3904 499 4045 
Q 499 4179 595 4275 
Q 691 4371 826 4371 
Q 966 4371 1059 4275 
Q 1152 4179 1152 4045 
z
M 1619 0 
L 102 0 
L 102 96 
Q 435 115 521 211 
Q 608 307 608 666 
L 608 2118 
Q 608 2342 563 2432 
Q 518 2522 397 2522 
Q 243 2522 128 2490 
L 128 2592 
L 1120 2944 
L 1146 2918 
L 1146 672 
Q 1146 314 1226 218 
Q 1306 122 1619 96 
L 1619 0 
z
" transform="scale(0.015625)"/>
       <path id="STIXGeneral-Regular-6e" d="M 3104 0 
L 1773 0 
L 1779 96 
Q 2016 115 2096 233 
Q 2176 352 2176 672 
L 2176 1946 
Q 2176 2592 1709 2592 
Q 1549 2592 1408 2515 
Q 1267 2438 1050 2227 
L 1050 461 
Q 1050 269 1136 192 
Q 1222 115 1466 96 
L 1466 0 
L 115 0 
L 115 96 
Q 358 115 435 214 
Q 512 314 512 602 
L 512 2157 
Q 512 2394 467 2483 
Q 422 2573 288 2573 
Q 160 2573 102 2547 
L 102 2656 
Q 550 2784 979 2944 
L 1030 2925 
L 1030 2426 
L 1037 2426 
Q 1491 2944 1958 2944 
Q 2323 2944 2518 2688 
Q 2714 2432 2714 1958 
L 2714 544 
Q 2714 288 2790 205 
Q 2867 122 3104 96 
L 3104 0 
z
" transform="scale(0.015625)"/>
       <path id="STIXGeneral-Regular-2f" d="M 1837 4326 
L 378 -90 
L -58 -90 
L 1408 4326 
L 1837 4326 
z
" transform="scale(0.015625)"/>
       <path id="STIXGeneral-Regular-31" d="M 2522 0 
L 755 0 
L 755 96 
Q 1107 115 1235 227 
Q 1363 339 1363 608 
L 1363 3482 
Q 1363 3795 1171 3795 
Q 1082 3795 883 3718 
L 710 3654 
L 710 3744 
L 1856 4326 
L 1914 4307 
L 1914 486 
Q 1914 275 2042 185 
Q 2170 96 2522 96 
L 2522 0 
z
" transform="scale(0.015625)"/>
      </defs>
      <use xlink:href="#STIXGeneral-Italic-4e" transform="translate(0 0.40625)"/>
      <use xlink:href="#STIXGeneral-Regular-74" transform="translate(66.699997 -12.821875) scale(0.7)"/>
      <use xlink:href="#STIXGeneral-Regular-72" transform="translate(86.159988 -12.821875) scale(0.7)"/>
      <use xlink:href="#STIXGeneral-Regular-61" transform="translate(109.46998 -12.821875) scale(0.7)"/>
      <use xlink:href="#STIXGeneral-Regular-69" transform="translate(140.549976 -12.821875) scale(0.7)"/>
      <use xlink:href="#STIXGeneral-Regular-6e" transform="translate(160.009967 -12.821875) scale(0.7)"/>
      <use xlink:href="#STIXGeneral-Regular-2f" transform="translate(199.419331 0.40625)"/>
      <use xlink:href="#STIXGeneral-Regular-31" transform="translate(227.219319 0.40625)"/>
      <use xlink:href="#STIXGeneral-Regular-30" transform="translate(277.219304 0.40625)"/>
      <use xlink:href="#STIXGeneral-Regular-30" transform="translate(327.219289 0.40625)"/>
      <use xlink:href="#STIXGeneral-Regular-30" transform="translate(377.219273 0.40625)"/>
     </g>
    </g>
   </g>
   <g id="matplotlib.axis_2">
    <g id="ytick_1">
     <g id="line2d_7">
      <path d="M 29.6 200.215755 
L 224.9 200.215755 
" clip-path="url(#pcedacc65e1)" style="fill: none"/>
     </g>
     <g id="line2d_8">
      <defs>
       <path id="ma72096ae3b" d="M 0 0 
L -3.5 0 
" style="stroke: #000000; stroke-width: 0.8"/>
      </defs>
      <g>
       <use xlink:href="#ma72096ae3b" x="29.6" y="200.215755" style="stroke: #000000; stroke-width: 0.8"/>
      </g>
     </g>
     <g id="text_5">
      <!-- $\mathdefault{10^{-2}}$ -->
      <g transform="translate(3.6 203.630599) scale(0.1 -0.1)">
       <defs>
        <path id="STIXGeneral-Regular-2212" d="M 3974 1408 
L 410 1408 
L 410 1830 
L 3974 1830 
L 3974 1408 
z
" transform="scale(0.015625)"/>
       </defs>
       <use xlink:href="#STIXGeneral-Regular-31" transform="translate(0 0.684375)"/>
       <use xlink:href="#STIXGeneral-Regular-30" transform="translate(49.999985 0.684375)"/>
       <use xlink:href="#STIXGeneral-Regular-2212" transform="translate(101.574969 36.684375) scale(0.7)"/>
       <use xlink:href="#STIXGeneral-Regular-32" transform="translate(149.524959 36.684375) scale(0.7)"/>
      </g>
     </g>
    </g>
    <g id="ytick_2">
     <g id="line2d_9">
      <path d="M 29.6 103.615299 
L 224.9 103.615299 
" clip-path="url(#pcedacc65e1)" style="fill: none"/>
     </g>
     <g id="line2d_10">
      <g>
       <use xlink:href="#ma72096ae3b" x="29.6" y="103.615299" style="stroke: #000000; stroke-width: 0.8"/>
      </g>
     </g>
     <g id="text_6">
      <!-- $\mathdefault{10^{-1}}$ -->
      <g transform="translate(3.6 107.030143) scale(0.1 -0.1)">
       <use xlink:href="#STIXGeneral-Regular-31" transform="translate(0 0.684375)"/>
       <use xlink:href="#STIXGeneral-Regular-30" transform="translate(49.999985 0.684375)"/>
       <use xlink:href="#STIXGeneral-Regular-2212" transform="translate(101.574969 36.684375) scale(0.7)"/>
       <use xlink:href="#STIXGeneral-Regular-31" transform="translate(149.524959 36.684375) scale(0.7)"/>
      </g>
     </g>
    </g>
    <g id="ytick_3">
     <g id="line2d_11">
      <path d="M 29.6 7.014844 
L 224.9 7.014844 
" clip-path="url(#pcedacc65e1)" style="fill: none"/>
     </g>
     <g id="line2d_12">
      <g>
       <use xlink:href="#ma72096ae3b" x="29.6" y="7.014844" style="stroke: #000000; stroke-width: 0.8"/>
      </g>
     </g>
     <g id="text_7">
      <!-- $\mathdefault{10^{0}}$ -->
      <g transform="translate(8.4 10.429687) scale(0.1 -0.1)">
       <use xlink:href="#STIXGeneral-Regular-31" transform="translate(0 0.684375)"/>
       <use xlink:href="#STIXGeneral-Regular-30" transform="translate(49.999985 0.684375)"/>
       <use xlink:href="#STIXGeneral-Regular-30" transform="translate(101.574969 36.684375) scale(0.7)"/>
      </g>
     </g>
    </g>
    <g id="ytick_4">
     <g id="line2d_13">
      <defs>
       <path id="m3132cbd59f" d="M 0 0 
L -2 0 
" style="stroke: #000000; stroke-width: 0.6"/>
      </defs>
      <g>
       <use xlink:href="#m3132cbd59f" x="29.6" y="171.13612" style="stroke: #000000; stroke-width: 0.6"/>
      </g>
     </g>
    </g>
    <g id="ytick_5">
     <g id="line2d_14">
      <g>
       <use xlink:href="#m3132cbd59f" x="29.6" y="154.125624" style="stroke: #000000; stroke-width: 0.6"/>
      </g>
     </g>
    </g>
    <g id="ytick_6">
     <g id="line2d_15">
      <g>
       <use xlink:href="#m3132cbd59f" x="29.6" y="142.056485" style="stroke: #000000; stroke-width: 0.6"/>
      </g>
     </g>
    </g>
    <g id="ytick_7">
     <g id="line2d_16">
      <g>
       <use xlink:href="#m3132cbd59f" x="29.6" y="132.694934" style="stroke: #000000; stroke-width: 0.6"/>
      </g>
     </g>
    </g>
    <g id="ytick_8">
     <g id="line2d_17">
      <g>
       <use xlink:href="#m3132cbd59f" x="29.6" y="125.04599" style="stroke: #000000; stroke-width: 0.6"/>
      </g>
     </g>
    </g>
    <g id="ytick_9">
     <g id="line2d_18">
      <g>
       <use xlink:href="#m3132cbd59f" x="29.6" y="118.578899" style="stroke: #000000; stroke-width: 0.6"/>
      </g>
     </g>
    </g>
    <g id="ytick_10">
     <g id="line2d_19">
      <g>
       <use xlink:href="#m3132cbd59f" x="29.6" y="112.976851" style="stroke: #000000; stroke-width: 0.6"/>
      </g>
     </g>
    </g>
    <g id="ytick_11">
     <g id="line2d_20">
      <g>
       <use xlink:href="#m3132cbd59f" x="29.6" y="108.035494" style="stroke: #000000; stroke-width: 0.6"/>
      </g>
     </g>
    </g>
    <g id="ytick_12">
     <g id="line2d_21">
      <g>
       <use xlink:href="#m3132cbd59f" x="29.6" y="74.535665" style="stroke: #000000; stroke-width: 0.6"/>
      </g>
     </g>
    </g>
    <g id="ytick_13">
     <g id="line2d_22">
      <g>
       <use xlink:href="#m3132cbd59f" x="29.6" y="57.525169" style="stroke: #000000; stroke-width: 0.6"/>
      </g>
     </g>
    </g>
    <g id="ytick_14">
     <g id="line2d_23">
      <g>
       <use xlink:href="#m3132cbd59f" x="29.6" y="45.45603" style="stroke: #000000; stroke-width: 0.6"/>
      </g>
     </g>
    </g>
    <g id="ytick_15">
     <g id="line2d_24">
      <g>
       <use xlink:href="#m3132cbd59f" x="29.6" y="36.094478" style="stroke: #000000; stroke-width: 0.6"/>
      </g>
     </g>
    </g>
    <g id="ytick_16">
     <g id="line2d_25">
      <g>
       <use xlink:href="#m3132cbd59f" x="29.6" y="28.445534" style="stroke: #000000; stroke-width: 0.6"/>
      </g>
     </g>
    </g>
    <g id="ytick_17">
     <g id="line2d_26">
      <g>
       <use xlink:href="#m3132cbd59f" x="29.6" y="21.978444" style="stroke: #000000; stroke-width: 0.6"/>
      </g>
     </g>
    </g>
    <g id="ytick_18">
     <g id="line2d_27">
      <g>
       <use xlink:href="#m3132cbd59f" x="29.6" y="16.376395" style="stroke: #000000; stroke-width: 0.6"/>
      </g>
     </g>
    </g>
    <g id="ytick_19">
     <g id="line2d_28">
      <g>
       <use xlink:href="#m3132cbd59f" x="29.6" y="11.435038" style="stroke: #000000; stroke-width: 0.6"/>
      </g>
     </g>
    </g>
   </g>
   <g id="line2d_29">
    <path d="M 29.109296 34.699903 
L 78.179648 81.452658 
L 127.25 101.369101 
L 176.320352 112.611358 
L 229.5 122.5718 
" clip-path="url(#pcedacc65e1)" style="fill: none; stroke: #0000ff; stroke-width: 3.5; stroke-linecap: square"/>
    <defs>
     <path id="m2c0c363342" d="M 0 3.535534 
L 3.535534 0 
L 0 -3.535534 
L -3.535534 0 
z
" style="stroke: #0000ff; stroke-linejoin: miter"/>
    </defs>
    <g clip-path="url(#pcedacc65e1)">
     <use xlink:href="#m2c0c363342" x="29.109296" y="34.699903" style="fill: #0000ff; stroke: #0000ff; stroke-linejoin: miter"/>
     <use xlink:href="#m2c0c363342" x="78.179648" y="81.452658" style="fill: #0000ff; stroke: #0000ff; stroke-linejoin: miter"/>
     <use xlink:href="#m2c0c363342" x="127.25" y="101.369101" style="fill: #0000ff; stroke: #0000ff; stroke-linejoin: miter"/>
     <use xlink:href="#m2c0c363342" x="176.320352" y="112.611358" style="fill: #0000ff; stroke: #0000ff; stroke-linejoin: miter"/>
     <use xlink:href="#m2c0c363342" x="240.111809" y="124.559371" style="fill: #0000ff; stroke: #0000ff; stroke-linejoin: miter"/>
    </g>
   </g>
   <g id="line2d_30">
    <path d="M 29.109296 23.741024 
L 78.179648 47.563802 
L 127.25 54.686682 
L 176.320352 59.106877 
L 229.5 74.620157 
" clip-path="url(#pcedacc65e1)" style="fill: none; stroke: #0000ff; stroke-width: 1.25; stroke-linecap: square"/>
    <g clip-path="url(#pcedacc65e1)">
     <use xlink:href="#m2c0c363342" x="29.109296" y="23.741024" style="fill: #0000ff; stroke: #0000ff; stroke-linejoin: miter"/>
     <use xlink:href="#m2c0c363342" x="78.179648" y="47.563802" style="fill: #0000ff; stroke: #0000ff; stroke-linejoin: miter"/>
     <use xlink:href="#m2c0c363342" x="127.25" y="54.686682" style="fill: #0000ff; stroke: #0000ff; stroke-linejoin: miter"/>
     <use xlink:href="#m2c0c363342" x="176.320352" y="59.106877" style="fill: #0000ff; stroke: #0000ff; stroke-linejoin: miter"/>
     <use xlink:href="#m2c0c363342" x="240.111809" y="77.715777" style="fill: #0000ff; stroke: #0000ff; stroke-linejoin: miter"/>
    </g>
   </g>
   <g id="line2d_31">
    <path d="M 29.109296 46.442956 
L 78.179648 128.544102 
L 127.25 142.161499 
L 176.320352 152.078728 
L 229.5 154.372934 
" clip-path="url(#pcedacc65e1)" style="fill: none; stroke: #b22222; stroke-width: 3.5; stroke-linecap: square"/>
    <defs>
     <path id="mf1372ddb01" d="M -2.5 2.5 
L 2.5 -2.5 
M -2.5 -2.5 
L 2.5 2.5 
" style="stroke: #b22222"/>
    </defs>
    <g clip-path="url(#pcedacc65e1)">
     <use xlink:href="#mf1372ddb01" x="29.109296" y="46.442956" style="fill: #b22222; stroke: #b22222"/>
     <use xlink:href="#mf1372ddb01" x="78.179648" y="128.544102" style="fill: #b22222; stroke: #b22222"/>
     <use xlink:href="#mf1372ddb01" x="127.25" y="142.161499" style="fill: #b22222; stroke: #b22222"/>
     <use xlink:href="#mf1372ddb01" x="176.320352" y="152.078728" style="fill: #b22222; stroke: #b22222"/>
     <use xlink:href="#mf1372ddb01" x="240.111809" y="154.830734" style="fill: #b22222; stroke: #b22222"/>
    </g>
   </g>
   <g id="line2d_32">
    <path d="M 29.109296 28.87424 
L 78.179648 66.747109 
L 127.25 80.741364 
L 176.320352 86.744881 
L 229.5 114.50341 
" clip-path="url(#pcedacc65e1)" style="fill: none; stroke: #b22222; stroke-width: 1.25; stroke-linecap: square"/>
    <g clip-path="url(#pcedacc65e1)">
     <use xlink:href="#mf1372ddb01" x="29.109296" y="28.87424" style="fill: #b22222; stroke: #b22222"/>
     <use xlink:href="#mf1372ddb01" x="78.179648" y="66.747109" style="fill: #b22222; stroke: #b22222"/>
     <use xlink:href="#mf1372ddb01" x="127.25" y="80.741364" style="fill: #b22222; stroke: #b22222"/>
     <use xlink:href="#mf1372ddb01" x="176.320352" y="86.744881" style="fill: #b22222; stroke: #b22222"/>
     <use xlink:href="#mf1372ddb01" x="240.111809" y="120.042526" style="fill: #b22222; stroke: #b22222"/>
    </g>
   </g>
   <g id="line2d_33">
    <path d="M 29.109296 71.501593 
L 78.179648 144.208395 
L 127.25 173.28803 
L 176.320352 196.217203 
L 229.5 217.416251 
" clip-path="url(#pcedacc65e1)" style="fill: none; stroke-dasharray: 3.5,3.5; stroke-dashoffset: 0; stroke: #0000ff; stroke-opacity: 0.5; stroke-width: 3.5"/>
    <defs>
     <path id="m2c22f6add5" d="M 0 3.535534 
L 3.535534 0 
L 0 -3.535534 
L -3.535534 0 
z
" style="stroke: #0000ff; stroke-opacity: 0.5; stroke-linejoin: miter"/>
    </defs>
    <g clip-path="url(#pcedacc65e1)">
     <use xlink:href="#m2c22f6add5" x="29.109296" y="71.501593" style="fill: #0000ff; fill-opacity: 0.5; stroke: #0000ff; stroke-opacity: 0.5; stroke-linejoin: miter"/>
     <use xlink:href="#m2c22f6add5" x="78.179648" y="144.208395" style="fill: #0000ff; fill-opacity: 0.5; stroke: #0000ff; stroke-opacity: 0.5; stroke-linejoin: miter"/>
     <use xlink:href="#m2c22f6add5" x="127.25" y="173.28803" style="fill: #0000ff; fill-opacity: 0.5; stroke: #0000ff; stroke-opacity: 0.5; stroke-linejoin: miter"/>
     <use xlink:href="#m2c22f6add5" x="176.320352" y="196.217203" style="fill: #0000ff; fill-opacity: 0.5; stroke: #0000ff; stroke-opacity: 0.5; stroke-linejoin: miter"/>
     <use xlink:href="#m2c22f6add5" x="240.111809" y="221.646445" style="fill: #0000ff; fill-opacity: 0.5; stroke: #0000ff; stroke-opacity: 0.5; stroke-linejoin: miter"/>
    </g>
   </g>
   <g id="line2d_34">
    <path d="M 29.109296 46.625899 
L 78.179648 94.930425 
L 127.25 108.504248 
L 176.320352 112.976851 
L 229.5 130.121371 
" clip-path="url(#pcedacc65e1)" style="fill: none; stroke-dasharray: 1.25,1.25; stroke-dashoffset: 0; stroke: #0000ff; stroke-opacity: 0.5; stroke-width: 1.25"/>
    <g clip-path="url(#pcedacc65e1)">
     <use xlink:href="#m2c22f6add5" x="29.109296" y="46.625899" style="fill: #0000ff; fill-opacity: 0.5; stroke: #0000ff; stroke-opacity: 0.5; stroke-linejoin: miter"/>
     <use xlink:href="#m2c22f6add5" x="78.179648" y="94.930425" style="fill: #0000ff; fill-opacity: 0.5; stroke: #0000ff; stroke-opacity: 0.5; stroke-linejoin: miter"/>
     <use xlink:href="#m2c22f6add5" x="127.25" y="108.504248" style="fill: #0000ff; fill-opacity: 0.5; stroke: #0000ff; stroke-opacity: 0.5; stroke-linejoin: miter"/>
     <use xlink:href="#m2c22f6add5" x="176.320352" y="112.976851" style="fill: #0000ff; fill-opacity: 0.5; stroke: #0000ff; stroke-opacity: 0.5; stroke-linejoin: miter"/>
     <use xlink:href="#m2c22f6add5" x="240.111809" y="133.542499" style="fill: #0000ff; fill-opacity: 0.5; stroke: #0000ff; stroke-opacity: 0.5; stroke-linejoin: miter"/>
    </g>
   </g>
   <g id="line2d_35">
    <path d="M 29.109296 90.102916 
L 78.179648 155.547898 
L 127.25 183.205259 
L 176.320352 209.577306 
L 229.5 233.819498 
" clip-path="url(#pcedacc65e1)" style="fill: none; stroke-dasharray: 3.5,3.5; stroke-dashoffset: 0; stroke: #b22222; stroke-opacity: 0.5; stroke-width: 3.5"/>
    <defs>
     <path id="m6eefbd880e" d="M -2.5 2.5 
L 2.5 -2.5 
M -2.5 -2.5 
L 2.5 2.5 
" style="stroke: #b22222; stroke-opacity: 0.5"/>
    </defs>
    <g clip-path="url(#pcedacc65e1)">
     <use xlink:href="#m6eefbd880e" x="29.109296" y="90.102916" style="fill: #b22222; fill-opacity: 0.5; stroke: #b22222; stroke-opacity: 0.5"/>
     <use xlink:href="#m6eefbd880e" x="78.179648" y="155.547898" style="fill: #b22222; fill-opacity: 0.5; stroke: #b22222; stroke-opacity: 0.5"/>
     <use xlink:href="#m6eefbd880e" x="127.25" y="183.205259" style="fill: #b22222; fill-opacity: 0.5; stroke: #b22222; stroke-opacity: 0.5"/>
     <use xlink:href="#m6eefbd880e" x="176.320352" y="209.577306" style="fill: #b22222; fill-opacity: 0.5; stroke: #b22222; stroke-opacity: 0.5"/>
     <use xlink:href="#m6eefbd880e" x="240.111809" y="238.656941" style="fill: #b22222; fill-opacity: 0.5; stroke: #b22222; stroke-opacity: 0.5"/>
    </g>
   </g>
   <g id="line2d_36">
    <path d="M 29.109296 63.367637 
L 78.179648 108.978298 
L 127.25 122.338402 
L 176.320352 128.696382 
L 229.5 142.560645 
" clip-path="url(#pcedacc65e1)" style="fill: none; stroke-dasharray: 1.25,1.25; stroke-dashoffset: 0; stroke: #b22222; stroke-opacity: 0.5; stroke-width: 1.25"/>
    <g clip-path="url(#pcedacc65e1)">
     <use xlink:href="#m6eefbd880e" x="29.109296" y="63.367637" style="fill: #b22222; fill-opacity: 0.5; stroke: #b22222; stroke-opacity: 0.5"/>
     <use xlink:href="#m6eefbd880e" x="78.179648" y="108.978298" style="fill: #b22222; fill-opacity: 0.5; stroke: #b22222; stroke-opacity: 0.5"/>
     <use xlink:href="#m6eefbd880e" x="127.25" y="122.338402" style="fill: #b22222; fill-opacity: 0.5; stroke: #b22222; stroke-opacity: 0.5"/>
     <use xlink:href="#m6eefbd880e" x="176.320352" y="128.696382" style="fill: #b22222; fill-opacity: 0.5; stroke: #b22222; stroke-opacity: 0.5"/>
     <use xlink:href="#m6eefbd880e" x="240.111809" y="145.327209" style="fill: #b22222; fill-opacity: 0.5; stroke: #b22222; stroke-opacity: 0.5"/>
    </g>
   </g>
   <g id="patch_3">
    <path d="M 29.6 200.637397 
L 29.6 6.597397 
" style="fill: none; stroke: #000000; stroke-linejoin: miter; stroke-linecap: square"/>
   </g>
   <g id="patch_4">
    <path d="M 224.9 200.637397 
L 224.9 6.597397 
" style="fill: none; stroke: #000000; stroke-linejoin: miter; stroke-linecap: square"/>
   </g>
   <g id="patch_5">
    <path d="M 29.6 200.637397 
L 224.9 200.637397 
" style="fill: none; stroke: #000000; stroke-linejoin: miter; stroke-linecap: square"/>
   </g>
   <g id="patch_6">
    <path d="M 29.6 6.597397 
L 224.9 6.597397 
" style="fill: none; stroke: #000000; stroke-linejoin: miter; stroke-linecap: square"/>
   </g>
   <g id="legend_1">
    <g id="line2d_37">
     <path d="M 51.14375 17.847397 
L 60.14375 17.847397 
L 69.14375 17.847397 
" style="fill: none; stroke: #0000ff; stroke-width: 3.5; stroke-linecap: square"/>
     <g>
      <use xlink:href="#m2c0c363342" x="60.14375" y="17.847397" style="fill: #0000ff; stroke: #0000ff; stroke-linejoin: miter"/>
     </g>
    </g>
    <g id="text_8">
     <!-- TRF, T=128 -->
     <g transform="translate(72.74375 20.997397) scale(0.09 -0.09)">
      <defs>
       <path id="STIXGeneral-Regular-54" d="M 3795 3149 
L 3642 3149 
Q 3539 3674 3353 3821 
Q 3168 3968 2656 3968 
L 2278 3968 
L 2278 710 
Q 2278 346 2387 243 
Q 2496 141 2893 122 
L 2893 0 
L 1024 0 
L 1024 122 
Q 1427 147 1526 256 
Q 1626 365 1626 787 
L 1626 3968 
L 1242 3968 
Q 723 3968 540 3817 
Q 358 3667 262 3149 
L 109 3149 
L 154 4237 
L 3750 4237 
L 3795 3149 
z
" transform="scale(0.015625)"/>
       <path id="STIXGeneral-Regular-52" d="M 4224 0 
L 3187 0 
L 1664 1971 
L 1306 1958 
L 1306 717 
Q 1306 352 1405 249 
Q 1504 147 1875 122 
L 1875 0 
L 109 0 
L 109 122 
Q 474 154 563 262 
Q 653 371 653 794 
L 653 3526 
Q 653 3885 563 3987 
Q 474 4090 109 4115 
L 109 4237 
L 1850 4237 
Q 2726 4237 3187 3859 
Q 3501 3603 3501 3091 
Q 3501 2221 2342 2042 
L 3622 422 
Q 3757 256 3878 198 
Q 4000 141 4224 122 
L 4224 0 
z
M 1306 3731 
L 1306 2195 
Q 1766 2202 1990 2246 
Q 2214 2291 2438 2413 
Q 2803 2618 2803 3142 
Q 2803 4000 1632 4000 
Q 1459 4000 1382 3945 
Q 1306 3891 1306 3731 
z
" transform="scale(0.015625)"/>
       <path id="STIXGeneral-Regular-46" d="M 3494 3322 
L 3334 3322 
Q 3264 3757 3094 3875 
Q 2925 3994 2349 3994 
L 1504 3994 
Q 1370 3994 1328 3946 
Q 1286 3898 1286 3744 
L 1286 2355 
L 2195 2355 
Q 2598 2355 2736 2470 
Q 2874 2586 2918 2963 
L 3066 2963 
L 3066 1472 
L 2918 1472 
Q 2880 1862 2745 1977 
Q 2611 2093 2195 2093 
L 1286 2093 
L 1286 717 
Q 1286 352 1392 246 
Q 1498 141 1869 122 
L 1869 0 
L 70 0 
L 70 122 
Q 435 147 534 259 
Q 634 371 634 787 
L 634 3526 
Q 634 3878 538 3984 
Q 442 4090 77 4115 
L 77 4237 
L 3462 4237 
L 3494 3322 
z
" transform="scale(0.015625)"/>
       <path id="STIXGeneral-Regular-2c" d="M 531 -902 
L 467 -781 
Q 998 -422 998 -96 
Q 998 -13 909 -13 
Q 883 -13 822 -25 
Q 762 -38 723 -38 
Q 352 -38 352 288 
Q 352 454 457 553 
Q 563 653 736 653 
Q 954 653 1101 496 
Q 1248 339 1248 96 
Q 1248 -198 1053 -473 
Q 858 -749 531 -902 
z
" transform="scale(0.015625)"/>
       <path id="STIXGeneral-Regular-20" transform="scale(0.015625)"/>
       <path id="STIXGeneral-Regular-3d" d="M 4077 2048 
L 307 2048 
L 307 2470 
L 4077 2470 
L 4077 2048 
z
M 4077 768 
L 307 768 
L 307 1190 
L 4077 1190 
L 4077 768 
z
" transform="scale(0.015625)"/>
       <path id="STIXGeneral-Regular-38" d="M 2848 992 
Q 2848 499 2505 204 
Q 2163 -90 1587 -90 
Q 1050 -90 704 204 
Q 358 499 358 954 
Q 358 1293 524 1533 
Q 691 1773 1190 2125 
Q 710 2522 553 2765 
Q 397 3008 397 3328 
Q 397 3782 745 4054 
Q 1094 4326 1638 4326 
Q 2106 4326 2410 4060 
Q 2714 3795 2714 3411 
Q 2714 3059 2531 2848 
Q 2349 2637 1856 2374 
Q 2432 1990 2640 1689 
Q 2848 1389 2848 992 
z
M 2272 3411 
Q 2272 3744 2086 3945 
Q 1901 4147 1574 4147 
Q 1248 4147 1059 3977 
Q 870 3808 870 3513 
Q 870 3219 1059 2979 
Q 1248 2739 1670 2490 
Q 1997 2682 2134 2896 
Q 2272 3110 2272 3411 
z
M 1734 1741 
L 1357 1997 
Q 1075 1766 960 1545 
Q 845 1325 845 1011 
Q 845 576 1065 333 
Q 1286 90 1658 90 
Q 1971 90 2166 285 
Q 2362 480 2362 794 
Q 2362 1082 2214 1299 
Q 2067 1517 1734 1741 
z
" transform="scale(0.015625)"/>
      </defs>
      <use xlink:href="#STIXGeneral-Regular-54"/>
      <use xlink:href="#STIXGeneral-Regular-52" x="61.099991"/>
      <use xlink:href="#STIXGeneral-Regular-46" x="127.799988"/>
      <use xlink:href="#STIXGeneral-Regular-2c" x="183.399979"/>
      <use xlink:href="#STIXGeneral-Regular-20" x="208.399963"/>
      <use xlink:href="#STIXGeneral-Regular-54" x="233.399948"/>
      <use xlink:href="#STIXGeneral-Regular-3d" x="294.499939"/>
      <use xlink:href="#STIXGeneral-Regular-31" x="362.999924"/>
      <use xlink:href="#STIXGeneral-Regular-32" x="412.999908"/>
      <use xlink:href="#STIXGeneral-Regular-38" x="462.999893"/>
     </g>
    </g>
    <g id="line2d_38">
     <path d="M 51.14375 28.350678 
L 60.14375 28.350678 
L 69.14375 28.350678 
" style="fill: none; stroke: #0000ff; stroke-width: 1.25; stroke-linecap: square"/>
     <g>
      <use xlink:href="#m2c0c363342" x="60.14375" y="28.350678" style="fill: #0000ff; stroke: #0000ff; stroke-linejoin: miter"/>
     </g>
    </g>
    <g id="text_9">
     <!-- ResMLP, T=128 -->
     <g transform="translate(72.74375 31.500678) scale(0.09 -0.09)">
      <defs>
       <path id="STIXGeneral-Regular-65" d="M 2611 1050 
L 2714 1005 
Q 2330 -64 1376 -64 
Q 813 -64 486 329 
Q 160 723 160 1389 
Q 160 2074 525 2509 
Q 890 2944 1485 2944 
Q 2061 2944 2374 2502 
Q 2560 2246 2592 1773 
L 621 1773 
Q 646 1370 700 1158 
Q 755 947 915 730 
Q 1184 378 1626 378 
Q 1939 378 2153 531 
Q 2368 685 2611 1050 
z
M 634 1978 
L 1939 1978 
Q 1882 2381 1750 2547 
Q 1619 2714 1312 2714 
Q 1043 2714 864 2525 
Q 685 2336 634 1978 
z
" transform="scale(0.015625)"/>
       <path id="STIXGeneral-Regular-73" d="M 998 1926 
L 1664 1523 
Q 1984 1331 2105 1164 
Q 2227 998 2227 736 
Q 2227 416 1961 176 
Q 1696 -64 1331 -64 
Q 1030 -64 864 -6 
Q 691 51 570 51 
Q 461 51 416 -26 
L 333 -26 
L 333 979 
L 435 979 
Q 538 512 730 294 
Q 922 77 1248 77 
Q 1485 77 1632 211 
Q 1779 346 1779 550 
Q 1779 845 1440 1030 
L 1094 1222 
Q 326 1651 326 2150 
Q 326 2522 566 2730 
Q 806 2938 1210 2938 
Q 1491 2938 1638 2867 
Q 1754 2816 1818 2816 
Q 1862 2816 1920 2880 
L 1990 2880 
L 2022 2010 
L 1926 2010 
Q 1818 2445 1654 2621 
Q 1491 2797 1203 2797 
Q 986 2797 854 2688 
Q 723 2579 723 2362 
Q 723 2253 796 2128 
Q 870 2003 998 1926 
z
" transform="scale(0.015625)"/>
       <path id="STIXGeneral-Regular-4d" d="M 5530 0 
L 3738 0 
L 3738 122 
Q 4115 147 4214 265 
Q 4314 384 4314 787 
L 4314 3661 
L 2682 0 
L 2592 0 
L 979 3514 
L 979 966 
Q 979 448 1088 294 
Q 1197 141 1574 122 
L 1574 0 
L 77 0 
L 77 122 
Q 358 141 480 205 
Q 602 269 650 432 
Q 698 595 698 966 
L 698 3514 
Q 698 3878 589 3984 
Q 480 4090 90 4115 
L 90 4237 
L 1357 4237 
L 2835 1024 
L 4250 4237 
L 5523 4237 
L 5523 4115 
Q 5178 4109 5072 3993 
Q 4966 3878 4966 3520 
L 4966 717 
Q 4966 378 5072 262 
Q 5178 147 5530 122 
L 5530 0 
z
" transform="scale(0.015625)"/>
       <path id="STIXGeneral-Regular-4c" d="M 3827 1114 
L 3520 0 
L 77 0 
L 77 122 
Q 429 141 531 256 
Q 634 371 634 736 
L 634 3494 
Q 634 3872 541 3981 
Q 448 4090 77 4115 
L 77 4237 
L 1888 4237 
L 1888 4115 
Q 1498 4090 1392 3984 
Q 1286 3878 1286 3507 
L 1286 538 
Q 1286 358 1398 304 
Q 1510 250 1862 250 
L 2310 250 
Q 3085 250 3392 640 
Q 3520 813 3661 1114 
L 3827 1114 
z
" transform="scale(0.015625)"/>
       <path id="STIXGeneral-Regular-50" d="M 102 4237 
L 1760 4237 
Q 2669 4237 3149 3834 
Q 3469 3565 3469 3072 
Q 3469 2560 3104 2234 
Q 2835 1990 2553 1916 
Q 2272 1843 1734 1843 
Q 1549 1843 1293 1862 
L 1293 717 
Q 1293 352 1398 246 
Q 1504 141 1894 122 
L 1894 0 
L 102 0 
L 102 122 
Q 474 147 557 256 
Q 640 365 640 781 
L 640 3526 
Q 640 3885 547 3987 
Q 454 4090 102 4115 
L 102 4237 
z
M 1293 3770 
L 1293 2118 
Q 1510 2099 1683 2099 
Q 2202 2099 2486 2352 
Q 2771 2605 2771 3040 
Q 2771 3558 2476 3779 
Q 2182 4000 1517 4000 
Q 1382 4000 1337 3952 
Q 1293 3904 1293 3770 
z
" transform="scale(0.015625)"/>
      </defs>
      <use xlink:href="#STIXGeneral-Regular-52"/>
      <use xlink:href="#STIXGeneral-Regular-65" x="66.699997"/>
      <use xlink:href="#STIXGeneral-Regular-73" x="111.099991"/>
      <use xlink:href="#STIXGeneral-Regular-4d" x="149.999985"/>
      <use xlink:href="#STIXGeneral-Regular-4c" x="238.899979"/>
      <use xlink:href="#STIXGeneral-Regular-50" x="299.999969"/>
      <use xlink:href="#STIXGeneral-Regular-2c" x="355.699966"/>
      <use xlink:href="#STIXGeneral-Regular-20" x="380.699951"/>
      <use xlink:href="#STIXGeneral-Regular-54" x="405.699936"/>
      <use xlink:href="#STIXGeneral-Regular-3d" x="466.799927"/>
      <use xlink:href="#STIXGeneral-Regular-31" x="535.299911"/>
      <use xlink:href="#STIXGeneral-Regular-32" x="585.299896"/>
      <use xlink:href="#STIXGeneral-Regular-38" x="635.299881"/>
     </g>
    </g>
    <g id="line2d_39">
     <path d="M 138.021875 17.847397 
L 147.021875 17.847397 
L 156.021875 17.847397 
" style="fill: none; stroke: #b22222; stroke-width: 3.5; stroke-linecap: square"/>
     <g>
      <use xlink:href="#mf1372ddb01" x="147.021875" y="17.847397" style="fill: #b22222; stroke: #b22222"/>
     </g>
    </g>
    <g id="text_10">
     <!-- TRF, T=64 -->
     <g transform="translate(159.621875 20.997397) scale(0.09 -0.09)">
      <defs>
       <path id="STIXGeneral-Regular-36" d="M 2854 4378 
L 2867 4275 
Q 2112 4154 1606 3664 
Q 1101 3174 973 2451 
Q 1344 2739 1786 2739 
Q 2349 2739 2672 2380 
Q 2995 2022 2995 1402 
Q 2995 774 2669 378 
Q 2291 -90 1651 -90 
Q 870 -90 518 557 
Q 218 1107 218 1786 
Q 218 2835 915 3552 
Q 1312 3962 1731 4131 
Q 2150 4301 2854 4378 
z
M 2419 1203 
Q 2419 2445 1555 2445 
Q 1235 2445 1024 2275 
Q 813 2106 813 1702 
Q 813 954 1046 522 
Q 1280 90 1722 90 
Q 2061 90 2240 394 
Q 2419 698 2419 1203 
z
" transform="scale(0.015625)"/>
      </defs>
      <use xlink:href="#STIXGeneral-Regular-54"/>
      <use xlink:href="#STIXGeneral-Regular-52" x="61.099991"/>
      <use xlink:href="#STIXGeneral-Regular-46" x="127.799988"/>
      <use xlink:href="#STIXGeneral-Regular-2c" x="183.399979"/>
      <use xlink:href="#STIXGeneral-Regular-20" x="208.399963"/>
      <use xlink:href="#STIXGeneral-Regular-54" x="233.399948"/>
      <use xlink:href="#STIXGeneral-Regular-3d" x="294.499939"/>
      <use xlink:href="#STIXGeneral-Regular-36" x="362.999924"/>
      <use xlink:href="#STIXGeneral-Regular-34" x="412.999908"/>
     </g>
    </g>
    <g id="line2d_40">
     <path d="M 138.021875 28.350678 
L 147.021875 28.350678 
L 156.021875 28.350678 
" style="fill: none; stroke: #b22222; stroke-width: 1.25; stroke-linecap: square"/>
     <g>
      <use xlink:href="#mf1372ddb01" x="147.021875" y="28.350678" style="fill: #b22222; stroke: #b22222"/>
     </g>
    </g>
    <g id="text_11">
     <!-- ResMLP, T=64 -->
     <g transform="translate(159.621875 31.500678) scale(0.09 -0.09)">
      <use xlink:href="#STIXGeneral-Regular-52"/>
      <use xlink:href="#STIXGeneral-Regular-65" x="66.699997"/>
      <use xlink:href="#STIXGeneral-Regular-73" x="111.099991"/>
      <use xlink:href="#STIXGeneral-Regular-4d" x="149.999985"/>
      <use xlink:href="#STIXGeneral-Regular-4c" x="238.899979"/>
      <use xlink:href="#STIXGeneral-Regular-50" x="299.999969"/>
      <use xlink:href="#STIXGeneral-Regular-2c" x="355.699966"/>
      <use xlink:href="#STIXGeneral-Regular-20" x="380.699951"/>
      <use xlink:href="#STIXGeneral-Regular-54" x="405.699936"/>
      <use xlink:href="#STIXGeneral-Regular-3d" x="466.799927"/>
      <use xlink:href="#STIXGeneral-Regular-36" x="535.299911"/>
      <use xlink:href="#STIXGeneral-Regular-34" x="585.299896"/>
     </g>
    </g>
   </g>
  </g>
 </g>
 <defs>
  <clipPath id="pcedacc65e1">
   <rect x="29.6" y="6.597397" width="195.3" height="194.04"/>
  </clipPath>
 </defs>
</svg>
